<?xml version="1.0" encoding="utf-8"?><svg width="64" height="32">
<!--This file was automatically generated by BCGSoft ribbon/toolbar designer-->
<svg xmlns="http://www.w3.org/2000/svg" width="15" height="13" viewBox="0 0 15 13" x="0" y="0">
  <title>SearchInFolder</title>
  <g id="BCG-largeIcons">
    <g id="SearchInFolder">
      <path d="M14,0H9.5L8,2H1A1,1,0,0,0,0,3V13H15V1A1,1,0,0,0,14,0ZM9.26,2,10,1h4V2Z" style="fill: #eac282"/>
      <path d="M10,1h4V2H9.26Zm1.19,9.84L9.39,9A3.08,3.08,0,0,0,4.6,5.23,3,3,0,0,0,3.76,8,3.07,3.07,0,0,0,8.7,9.8l1.77,1.76a.39.39,0,0,0,.54,0l.18-.18a.39.39,0,0,0,0-.54ZM7.32,9.52A2.19,2.19,0,0,1,6.23,5.28a2.48,2.48,0,0,1,.54-.06A2.18,2.18,0,0,1,8.89,8h0A2.16,2.16,0,0,1,7.32,9.52Z" style="fill: #fff"/>
    </g>
  </g>
</svg><svg xmlns="http://www.w3.org/2000/svg" width="16" height="16" viewBox="0 0 16 16" x="15" y="0">
  <title>Open_1</title>
  <g id="BCG-largeIcons">
    <polygon points="13.35 12.75 0.65 12.75 0.65 3.72 8.23 3.72 10.52 1.46 13.35 1.46 13.35 12.75" style="fill: #fff"/>
    <path id="Open" d="M13,1H10L8,3H1A1,1,0,0,0,0,4v9a1,1,0,0,0,1,1H12l2-2V2A1,1,0,0,0,13,1Zm0,5-1,7H1V4H8.5l2-2H13Zm1,8,1.86-6.86c.34-1,0-1.14-.57-1.14H3.5L1,12v2Z" style="fill: #eac282"/>
  </g>
</svg><svg xmlns="http://www.w3.org/2000/svg" width="16" height="15" viewBox="0 0 16 15" x="31" y="0">
  <title>Calc</title>
  <g id="BCG-largeIcons">
    <g id="Calc">
      <path d="M6,8H4V6H6ZM9,6H7V8H9ZM9,9H7v2H9ZM6,9H4v2H6Z" style="fill: #909090"/>
      <path d="M12,1a1,1,0,0,1,1,1V14H3V2A1,1,0,0,1,4,1h8m0-1H4A2,2,0,0,0,2,2V14a1,1,0,0,0,1,1H13a1,1,0,0,0,1-1V2a2,2,0,0,0-2-2Zm0,9H10v2h2Zm0-3H10V8h2Zm0,6H10v1h2ZM9,12H7v1H9ZM6,12H4v1H6Z" style="fill: #727272"/>
      <path d="M12,5H4V3A1,1,0,0,1,5,2h6a1,1,0,0,1,1,1Z" style="fill: #4a7db1"/>
    </g>
  </g>
</svg><svg xmlns="http://www.w3.org/2000/svg" width="16" height="15" viewBox="0 0 16 15" x="47" y="0">
  <title>Show</title>
  <g id="BCG-largeIcons">
    <g id="Show">
      <path d="M8,3C3.58,3,0,5.27,0,8.08c0,1.29.76,1,2,.38v0C2,11,4.64,13,8,13s6-2,6-4.5v0c1.24.65,2,.91,2-.38C16,5.27,12.42,3,8,3Zm5,5.5c0,1.93-2.24,3.5-5,3.5S3,10.43,3,8.5a2.5,2.5,0,0,1,.09-.61A18.66,18.66,0,0,1,5,7,4.21,4.21,0,0,0,5,7.5,3.28,3.28,0,0,0,8,11a3.28,3.28,0,0,0,3-3.5A4.21,4.21,0,0,0,11,7a18.66,18.66,0,0,1,1.95.9A2.5,2.5,0,0,1,13,8.5Z" style="fill: #2980b9"/>
      <path d="M10.43,5.46a4,4,0,0,1,.57,2A3.28,3.28,0,0,1,8,11,3.28,3.28,0,0,1,5,7.5a4,4,0,0,1,.57-2A3.55,3.55,0,0,0,3,8.5C3,10.43,5.24,12,8,12s5-1.57,5-3.5A3.55,3.55,0,0,0,10.43,5.46Z" style="fill: #fff"/>
    </g>
  </g>
</svg></svg>