<?xml version="1.0" encoding="utf-8"?><svg width="64" height="32">
<!--This file was automatically generated by BCGSoft ribbon/toolbar designer-->
<svg xmlns="http://www.w3.org/2000/svg" width="15" height="13" viewBox="0 0 15 13" x="0" y="0">
  <defs>
    <style>
      .cls-1 {
        fill: black;
      }

      .cls-2 {
        fill: #fff;
      }
    </style>
  </defs>
  <title>SearchInFolder_1</title>
  <g id="BCGSoft_GUIicons">
    <g id="SearchInFolder">
      <path class="cls-1" d="M15,2a1,1,0,0,0-1-1H11L9,2H1A1,1,0,0,0,0,3v9a1,1,0,0,0,1,1H14a1,1,0,0,0,1-1Z"/>
      <path class="cls-2" d="M11,10.89,9.21,9.12a3,3,0,1,0-4.56.38,3,3,0,0,0,3.85.32l1.78,1.78a.29.29,0,0,0,.42,0l.29-.28A.32.32,0,0,0,11,10.89ZM5.35,8.8a2,2,0,1,1,2.83,0A2,2,0,0,1,5.35,8.8Z"/>
    </g>
  </g>
</svg><svg xmlns="http://www.w3.org/2000/svg" width="16" height="16" viewBox="0 0 16 16" x="15" y="0">
  <title>Open_1</title>
  <g id="BCG-largeIcons">
    <polygon points="13.35 12.75 0.65 12.75 0.65 3.72 8.23 3.72 10.52 1.46 13.35 1.46 13.35 12.75" style="fill:white"/>
    <path id="Open" d="M13,1H10L8,3H1A1,1,0,0,0,0,4v9a1,1,0,0,0,1,1H12l2-2V2A1,1,0,0,0,13,1Zm0,5-1,7H1V4H8.5l2-2H13Zm1,8,1.86-6.86c.34-1,0-1.14-.57-1.14H3.5L1,12v2Z" style="fill:black"/>
  </g>
</svg><svg xmlns="http://www.w3.org/2000/svg" width="16" height="15" viewBox="0 0 16 15" x="31" y="0">
  <defs>
    <style>
      .cls-1 {
        fill: black;
      }

      .cls-2 {
        fill: #fff;
      }
    </style>
  </defs>
  <title>Calc_2</title>
  <g id="BCGSoft_GUIicons">
    <g id="Calc">
      <rect class="cls-1" x="2" width="12" height="15" rx="1" ry="1"/>
      <path class="cls-2" d="M4,4V2.5A.5.5,0,0,1,4.5,2h7a.5.5,0,0,1,.5.5V4a.5.5,0,0,1-.5.5h-7A.5.5,0,0,1,4,4Zm.5,7h1a.5.5,0,0,0,.5-.5v-1A.5.5,0,0,0,5.5,9h-1a.5.5,0,0,0-.5.5v1A.5.5,0,0,0,4.5,11Zm3,0h1a.5.5,0,0,0,.5-.5v-1A.5.5,0,0,0,8.5,9h-1a.5.5,0,0,0-.5.5v1A.5.5,0,0,0,7.5,11Zm1-5h-1a.5.5,0,0,0-.5.5v1a.5.5,0,0,0,.5.5h1A.5.5,0,0,0,9,7.5v-1A.5.5,0,0,0,8.5,6Zm-4,8h1a.5.5,0,0,0,.5-.5v-1a.5.5,0,0,0-.5-.5h-1a.5.5,0,0,0-.5.5v1A.5.5,0,0,0,4.5,14Zm1-8h-1a.5.5,0,0,0-.5.5v1a.5.5,0,0,0,.5.5h1A.5.5,0,0,0,6,7.5v-1A.5.5,0,0,0,5.5,6Zm5,5h1a.5.5,0,0,0,.5-.5v-1a.5.5,0,0,0-.5-.5h-1a.5.5,0,0,0-.5.5v1A.5.5,0,0,0,10.5,11Zm0,3h1a.5.5,0,0,0,.5-.5v-1a.5.5,0,0,0-.5-.5h-1a.5.5,0,0,0-.5.5v1A.5.5,0,0,0,10.5,14Zm-3,0h1a.5.5,0,0,0,.5-.5v-1a.5.5,0,0,0-.5-.5h-1a.5.5,0,0,0-.5.5v1A.5.5,0,0,0,7.5,14Zm4-8h-1a.5.5,0,0,0-.5.5v1a.5.5,0,0,0,.5.5h1a.5.5,0,0,0,.5-.5v-1A.5.5,0,0,0,11.5,6Z"/>
    </g>
  </g>
</svg><svg xmlns="http://www.w3.org/2000/svg" width="16" height="15" viewBox="0 0 16 15" x="47" y="0">
  <defs>
    <style>
      .cls-1 {
        fill: black;
      }

      .cls-2 {
        fill: none;
        stroke: #fff;
        stroke-miterlimit: 10;
      }
    </style>
  </defs>
  <title>Show_2</title>
  <g id="BCGSoft_GUIicons">
    <g id="Show">
      <path class="cls-1" d="M0,7.5A9.5,9.5,0,0,0,8,12a9.5,9.5,0,0,0,8-4.5h0A9.5,9.5,0,0,0,8,3,9.5,9.5,0,0,0,0,7.5Z"/>
      <circle class="cls-2" cx="8" cy="7.5" r="3"/>
    </g>
  </g>
</svg></svg>