<?xml version="1.0" encoding="utf-8"?><svg width="150" height="140">
<!--This file was automatically generated by BCGSoft ribbon/toolbar designer-->
<svg xmlns="http://www.w3.org/2000/svg" width="25" height="20" viewBox="0 0 25 20" x="0" y="0">
  <title>calc_0</title>
  <g id="BCG-largeIcons">
    <path d="M16.28,10.35a12.55,12.55,0,0,1-.2,2.3,5.15,5.15,0,0,1-.66,1.78,3.18,3.18,0,0,1-1.2,1.16,3.81,3.81,0,0,1-1.83.41,3.67,3.67,0,0,1-1.74-.37,2.81,2.81,0,0,1-1.14-1.08,5.13,5.13,0,0,1-.61-1.76,14.11,14.11,0,0,1-.18-2.39,12.55,12.55,0,0,1,.2-2.3,5.65,5.65,0,0,1,.66-1.79,3.15,3.15,0,0,1,1.2-1.15,3.66,3.66,0,0,1,1.82-.41,3.81,3.81,0,0,1,1.75.36A2.91,2.91,0,0,1,15.49,6.2,5.14,5.14,0,0,1,16.1,8,14.32,14.32,0,0,1,16.28,10.35Zm-1.49.1q0-.82-.06-1.47a8.29,8.29,0,0,0-.17-1.15A4.12,4.12,0,0,0,14.27,7a2.27,2.27,0,0,0-.44-.59A1.62,1.62,0,0,0,13.25,6a2.39,2.39,0,0,0-.73-.1,1.87,1.87,0,0,0-1.17.34,2.25,2.25,0,0,0-.7.93,4.8,4.8,0,0,0-.35,1.38,15.24,15.24,0,0,0-.09,1.71,15.35,15.35,0,0,0,.12,2.08,4.89,4.89,0,0,0,.4,1.4,1.81,1.81,0,0,0,.71.78,1.94,1.94,0,0,0,1,.25,2.12,2.12,0,0,0,.83-.15,1.71,1.71,0,0,0,.62-.44,2.55,2.55,0,0,0,.43-.68,5.06,5.06,0,0,0,.27-.88,10.08,10.08,0,0,0,.14-1Q14.79,11.05,14.79,10.45Z"/>
  </g>
</svg><svg xmlns="http://www.w3.org/2000/svg" width="25" height="20" viewBox="0 0 25 20" x="25" y="0">
  <title>calc_1</title>
  <g id="BCG-largeIcons">
    <path d="M15.68,15.43a2.13,2.13,0,0,1,0,.27.54.54,0,0,1-.07.17.24.24,0,0,1-.1.1.23.23,0,0,1-.11,0H9.67a.2.2,0,0,1-.11,0,.24.24,0,0,1-.1-.1.38.38,0,0,1-.07-.17,1.12,1.12,0,0,1,0-.27,1.06,1.06,0,0,1,0-.27A.48.48,0,0,1,9.45,15a.53.53,0,0,1,.09-.11.28.28,0,0,1,.13,0H12V6.52L9.83,7.78a.75.75,0,0,1-.25.1.17.17,0,0,1-.16,0,.25.25,0,0,1-.08-.18,2.58,2.58,0,0,1,0-.32,1.63,1.63,0,0,1,0-.24.61.61,0,0,1,0-.17.35.35,0,0,1,.07-.12.4.4,0,0,1,.12-.1l2.52-1.62.09,0,.12,0,.18,0h.25l.34,0,.21,0a.2.2,0,0,1,.13.18v9.6h2a.28.28,0,0,1,.12,0,.27.27,0,0,1,.1.11.48.48,0,0,1,.06.18A2,2,0,0,1,15.68,15.43Z"/>
  </g>
</svg><svg xmlns="http://www.w3.org/2000/svg" width="25" height="20" viewBox="0 0 25 20" x="50" y="0">
  <title>calc_2</title>
  <g id="BCG-largeIcons">
    <path d="M15.92,15.38a1.14,1.14,0,0,1,0,.27.53.53,0,0,1-.06.19.2.2,0,0,1-.1.12.23.23,0,0,1-.14,0h-6a.66.66,0,0,1-.21,0,.31.31,0,0,1-.15-.1.42.42,0,0,1-.09-.19,1.42,1.42,0,0,1,0-.31,2.72,2.72,0,0,1,0-.3.71.71,0,0,1,.06-.22,1,1,0,0,1,.11-.2,1.4,1.4,0,0,1,.17-.2l2.18-2.25a13.43,13.43,0,0,0,1.22-1.4,7.1,7.1,0,0,0,.7-1.12,3.43,3.43,0,0,0,.33-.92A4.49,4.49,0,0,0,13.94,8a1.8,1.8,0,0,0-.13-.69,1.69,1.69,0,0,0-.35-.57,1.74,1.74,0,0,0-.58-.39,2.2,2.2,0,0,0-.8-.14,3.06,3.06,0,0,0-.95.14,4.83,4.83,0,0,0-.75.32A4.68,4.68,0,0,0,9.85,7a.62.62,0,0,1-.32.14.23.23,0,0,1-.11,0A.23.23,0,0,1,9.35,7a.83.83,0,0,1,0-.2,2.69,2.69,0,0,1,0-.31,1.55,1.55,0,0,1,0-.22.41.41,0,0,1,0-.16.61.61,0,0,1,0-.12.88.88,0,0,1,.14-.15,2.46,2.46,0,0,1,.35-.24,4.17,4.17,0,0,1,.63-.3A5.66,5.66,0,0,1,11.31,5a4.19,4.19,0,0,1,.95-.1,3.9,3.9,0,0,1,1.39.22,2.72,2.72,0,0,1,1,.61,2.51,2.51,0,0,1,.59.91,3.07,3.07,0,0,1,.19,1.1,6.09,6.09,0,0,1-.09,1,4.06,4.06,0,0,1-.39,1.12,8.35,8.35,0,0,1-.87,1.35,21.07,21.07,0,0,1-1.5,1.7l-1.73,1.81h4.75a.28.28,0,0,1,.13,0,.32.32,0,0,1,.11.12.47.47,0,0,1,.07.19A1.06,1.06,0,0,1,15.92,15.38Z"/>
  </g>
</svg><svg xmlns="http://www.w3.org/2000/svg" width="25" height="20" viewBox="0 0 25 20" x="75" y="0">
  <title>calc_3</title>
  <g id="BCG-largeIcons">
    <path d="M15.93,12.71a3.3,3.3,0,0,1-.27,1.36,2.74,2.74,0,0,1-.75,1,3.36,3.36,0,0,1-1.21.67,5.37,5.37,0,0,1-1.62.23,5.45,5.45,0,0,1-1-.09,6.6,6.6,0,0,1-.85-.21,4.39,4.39,0,0,1-.62-.25,2,2,0,0,1-.31-.19l-.1-.12a.53.53,0,0,1,0-.15.88.88,0,0,1,0-.2,2.36,2.36,0,0,1,0-.3,1.05,1.05,0,0,1,.06-.43A.2.2,0,0,1,9.31,14a.85.85,0,0,1,.31.13,4.65,4.65,0,0,0,.59.29,5.79,5.79,0,0,0,.84.3,3.92,3.92,0,0,0,1.07.13,3.35,3.35,0,0,0,1-.14,2.07,2.07,0,0,0,.73-.41,1.6,1.6,0,0,0,.44-.62,2,2,0,0,0,.15-.78,1.79,1.79,0,0,0-.19-.84,1.76,1.76,0,0,0-.55-.64,2.52,2.52,0,0,0-.89-.41,4.38,4.38,0,0,0-1.2-.15H10.54a.35.35,0,0,1-.14,0,.31.31,0,0,1-.11-.09.75.75,0,0,1-.08-.18,1.12,1.12,0,0,1,0-.29.93.93,0,0,1,0-.26.34.34,0,0,1,.07-.17.24.24,0,0,1,.1-.1.32.32,0,0,1,.14,0h1a3.06,3.06,0,0,0,1-.14,2.22,2.22,0,0,0,.76-.41,1.9,1.9,0,0,0,.47-.65,2.06,2.06,0,0,0,.16-.84A1.78,1.78,0,0,0,13.75,7a1.51,1.51,0,0,0-.32-.53,1.39,1.39,0,0,0-.57-.36A2.11,2.11,0,0,0,12.07,6a2.93,2.93,0,0,0-.9.14,7.24,7.24,0,0,0-.73.32,4.6,4.6,0,0,0-.53.32.7.7,0,0,1-.29.15.2.2,0,0,1-.11,0,.15.15,0,0,1-.08-.08.6.6,0,0,1,0-.18,2.45,2.45,0,0,1,0-.3,1.48,1.48,0,0,1,0-.22.43.43,0,0,1,0-.17l.06-.13a.6.6,0,0,1,.11-.14,3.2,3.2,0,0,1,.33-.23,4.17,4.17,0,0,1,.6-.3,5.12,5.12,0,0,1,.83-.25,4.61,4.61,0,0,1,1-.1,4.21,4.21,0,0,1,1.34.19,2.53,2.53,0,0,1,1,.55,2.26,2.26,0,0,1,.58.85,2.94,2.94,0,0,1,.19,1.09,3.22,3.22,0,0,1-.14,1,2.33,2.33,0,0,1-1,1.37,2.51,2.51,0,0,1-.88.33v0a3.4,3.4,0,0,1,1,.28,3,3,0,0,1,.81.57,2.44,2.44,0,0,1,.53.79A2.57,2.57,0,0,1,15.93,12.71Z"/>
  </g>
</svg><svg xmlns="http://www.w3.org/2000/svg" width="25" height="20" viewBox="0 0 25 20" x="100" y="0">
  <title>calc_4</title>
  <g id="BCG-largeIcons">
    <path d="M15.87,12.84a.9.9,0,0,1-.09.44.25.25,0,0,1-.24.16H14.31v2.3a.2.2,0,0,1,0,.11.32.32,0,0,1-.13.08.9.9,0,0,1-.22.05l-.36,0-.35,0a1,1,0,0,1-.22-.05.24.24,0,0,1-.11-.08.2.2,0,0,1,0-.11v-2.3H8.39a.4.4,0,0,1-.17,0,.18.18,0,0,1-.12-.09A.42.42,0,0,1,8,13.13a2.92,2.92,0,0,1,0-.33,2.62,2.62,0,0,1,0-.29,1.6,1.6,0,0,1,0-.23,1.18,1.18,0,0,1,.07-.2,2,2,0,0,1,.1-.21l3.9-6.64a.28.28,0,0,1,.12-.12A1,1,0,0,1,12.44,5a1.34,1.34,0,0,1,.32,0h.45a3.62,3.62,0,0,1,.49,0A2.08,2.08,0,0,1,14,5a.41.41,0,0,1,.2.09.16.16,0,0,1,.07.13v7h1.23a.27.27,0,0,1,.24.15A.89.89,0,0,1,15.87,12.84Zm-3-6.6h0l-3.51,6h3.53Z"/>
  </g>
</svg><svg xmlns="http://www.w3.org/2000/svg" width="25" height="20" viewBox="0 0 25 20" x="125" y="0">
  <title>calc_5</title>
  <g id="BCG-largeIcons">
    <path d="M15.9,12.42A4.05,4.05,0,0,1,15.61,14a3.15,3.15,0,0,1-.84,1.15,3.54,3.54,0,0,1-1.29.72,5.41,5.41,0,0,1-1.66.24,5.86,5.86,0,0,1-1-.07,6.2,6.2,0,0,1-.81-.18c-.24-.07-.43-.14-.59-.2a1.28,1.28,0,0,1-.29-.16l-.09-.11s0-.08,0-.13a.42.42,0,0,1,0-.18,2,2,0,0,1,0-.26,2.09,2.09,0,0,1,0-.26.65.65,0,0,1,.05-.18.24.24,0,0,1,.08-.11.2.2,0,0,1,.11,0,.61.61,0,0,1,.26.1,3.45,3.45,0,0,0,.47.23,5.24,5.24,0,0,0,.75.23,4,4,0,0,0,1,.11,3.8,3.8,0,0,0,1-.13,2.15,2.15,0,0,0,.81-.42,2.08,2.08,0,0,0,.54-.73,2.58,2.58,0,0,0,.19-1.06,2.4,2.4,0,0,0-.16-.92,1.6,1.6,0,0,0-.51-.67,2.29,2.29,0,0,0-.86-.4,5.65,5.65,0,0,0-1.25-.13,7.4,7.4,0,0,0-.89.05,4.31,4.31,0,0,1-.69,0,.42.42,0,0,1-.34-.11.61.61,0,0,1-.1-.42V5.55a.55.55,0,0,1,.13-.41A.5.5,0,0,1,10.06,5h4.85A.24.24,0,0,1,15,5a.27.27,0,0,1,.1.11.77.77,0,0,1,.07.2,2.16,2.16,0,0,1,0,.28,1.17,1.17,0,0,1-.08.47.26.26,0,0,1-.23.17H11V9.33l.58-.05h.69a5,5,0,0,1,1.58.22,3.16,3.16,0,0,1,1.13.63,2.66,2.66,0,0,1,.68,1A3.3,3.3,0,0,1,15.9,12.42Z"/>
  </g>
</svg><svg xmlns="http://www.w3.org/2000/svg" width="25" height="20" viewBox="0 0 25 20" x="0" y="20">
  <title>calc_6</title>
  <g id="BCG-largeIcons">
    <path d="M16.09,11.92a4.35,4.35,0,0,1-.22,1.39,3.23,3.23,0,0,1-.68,1.18,3.05,3.05,0,0,1-1.15.82,4,4,0,0,1-1.66.31,3.76,3.76,0,0,1-1.21-.17A2.67,2.67,0,0,1,9.61,14.2a4.7,4.7,0,0,1-.41-1A7.61,7.61,0,0,1,9,11.89a13.93,13.93,0,0,1-.07-1.49A13.67,13.67,0,0,1,9,9,7.66,7.66,0,0,1,9.26,7.6a5.86,5.86,0,0,1,.52-1.26,3.78,3.78,0,0,1,2-1.71,4.81,4.81,0,0,1,1.63-.25,4.68,4.68,0,0,1,.64,0,3.45,3.45,0,0,1,.59.1,3.18,3.18,0,0,1,.46.14l.24.12a.28.28,0,0,1,.09.1l0,.12a.59.59,0,0,1,0,.14,1.21,1.21,0,0,1,0,.2V5.6a.69.69,0,0,1,0,.18.2.2,0,0,1-.07.1.28.28,0,0,1-.13,0,.79.79,0,0,1-.25-.06c-.11,0-.24-.09-.39-.13a4.36,4.36,0,0,0-.55-.14,4.26,4.26,0,0,0-.76-.06,2.65,2.65,0,0,0-2.28,1.19A4.28,4.28,0,0,0,10.55,8a8.1,8.1,0,0,0-.2,1.49c.15-.08.32-.17.5-.25a5.81,5.81,0,0,1,.6-.23,4.37,4.37,0,0,1,.69-.16,3.8,3.8,0,0,1,.77-.07,4.1,4.1,0,0,1,1.5.24,2.71,2.71,0,0,1,1,.67,2.59,2.59,0,0,1,.54,1A4.5,4.5,0,0,1,16.09,11.92Zm-1.47.14a3.46,3.46,0,0,0-.1-.89,1.59,1.59,0,0,0-.32-.68,1.55,1.55,0,0,0-.61-.44,2.57,2.57,0,0,0-.94-.15A3.18,3.18,0,0,0,12,10a3.2,3.2,0,0,0-.61.15,3.88,3.88,0,0,0-.56.23,5.5,5.5,0,0,0-.48.28,10.32,10.32,0,0,0,.14,1.83,3.62,3.62,0,0,0,.4,1.17,1.58,1.58,0,0,0,.67.64,2.2,2.2,0,0,0,.93.19,2.06,2.06,0,0,0,.93-.2,1.87,1.87,0,0,0,.66-.55,2.16,2.16,0,0,0,.39-.77A3.15,3.15,0,0,0,14.62,12.06Z"/>
  </g>
</svg><svg xmlns="http://www.w3.org/2000/svg" width="25" height="20" viewBox="0 0 25 20" x="25" y="20">
  <title>calc_7</title>
  <g id="BCG-largeIcons">
    <path d="M16.07,5.63a2.13,2.13,0,0,1,0,.27l0,.24a1.8,1.8,0,0,1-.06.22c0,.07-.05.14-.09.22l-3.94,9.07a.4.4,0,0,1-.1.17.62.62,0,0,1-.16.1.85.85,0,0,1-.25.05h-.37a2.83,2.83,0,0,1-.45,0,.67.67,0,0,1-.23-.08.16.16,0,0,1-.07-.14,1.3,1.3,0,0,1,.06-.19L14.5,6.28H9.26A.25.25,0,0,1,9,6.11a1.05,1.05,0,0,1-.09-.48,1.2,1.2,0,0,1,0-.28A.53.53,0,0,1,9,5.16.25.25,0,0,1,9.12,5a.23.23,0,0,1,.14,0h6.37a.6.6,0,0,1,.2,0,.21.21,0,0,1,.14.1.69.69,0,0,1,.07.19A1.3,1.3,0,0,1,16.07,5.63Z"/>
  </g>
</svg><svg xmlns="http://www.w3.org/2000/svg" width="25" height="20" viewBox="0 0 25 20" x="50" y="20">
  <title>calc_8</title>
  <g id="BCG-largeIcons">
    <path d="M16.18,13a3,3,0,0,1-.25,1.27,2.46,2.46,0,0,1-.73.93,3.34,3.34,0,0,1-1.18.58,6,6,0,0,1-1.6.19,5.87,5.87,0,0,1-1.52-.18,3.37,3.37,0,0,1-1.13-.52,2.42,2.42,0,0,1-.71-.85,2.7,2.7,0,0,1-.24-1.16A2.43,2.43,0,0,1,9,12.34a2.58,2.58,0,0,1,.48-.79,4.05,4.05,0,0,1,.78-.68,10.06,10.06,0,0,1,1.05-.61,5.67,5.67,0,0,1-.89-.55,3.62,3.62,0,0,1-.66-.63,2.66,2.66,0,0,1-.41-.73A2.37,2.37,0,0,1,9.2,7.5a3,3,0,0,1,.2-1.08A2.43,2.43,0,0,1,10,5.55,3.08,3.08,0,0,1,11.09,5a4.92,4.92,0,0,1,1.51-.21A4.67,4.67,0,0,1,14,4.94a2.89,2.89,0,0,1,1,.55,2,2,0,0,1,.58.8,2.73,2.73,0,0,1,.18,1,2.57,2.57,0,0,1-.13.83,3.07,3.07,0,0,1-.41.75,3.5,3.5,0,0,1-.67.66,5.58,5.58,0,0,1-.9.58,9.49,9.49,0,0,1,1.07.61,4.09,4.09,0,0,1,.79.67,2.7,2.7,0,0,1,.48.76A2.3,2.3,0,0,1,16.18,13Zm-1.47.16a1.64,1.64,0,0,0-.14-.71,1.86,1.86,0,0,0-.44-.59,4,4,0,0,0-.72-.53c-.29-.17-.63-.35-1-.54a9.41,9.41,0,0,0-.93.52,3.43,3.43,0,0,0-.66.55,1.74,1.74,0,0,0-.39.58,1.68,1.68,0,0,0-.13.68,1.51,1.51,0,0,0,.56,1.27,2.63,2.63,0,0,0,1.68.45,2.53,2.53,0,0,0,1.63-.45A1.52,1.52,0,0,0,14.71,13.19Zm-.35-5.77a1.66,1.66,0,0,0-.12-.64,1.33,1.33,0,0,0-.36-.49A1.74,1.74,0,0,0,13.29,6a2.78,2.78,0,0,0-.8-.1,2,2,0,0,0-1.38.41,1.46,1.46,0,0,0-.47,1.13,1.59,1.59,0,0,0,.12.62,1.58,1.58,0,0,0,.35.53,3.2,3.2,0,0,0,.61.5,8.12,8.12,0,0,0,.87.5,4.25,4.25,0,0,0,1.31-1A1.76,1.76,0,0,0,14.36,7.42Z"/>
  </g>
</svg><svg xmlns="http://www.w3.org/2000/svg" width="25" height="20" viewBox="0 0 25 20" x="75" y="20">
  <title>calc_9</title>
  <g id="BCG-largeIcons">
    <path d="M16.1,9.94A14.05,14.05,0,0,1,16,11.38a9.14,9.14,0,0,1-.29,1.4A6.42,6.42,0,0,1,15.18,14a3.83,3.83,0,0,1-.86,1,4,4,0,0,1-1.23.69,5,5,0,0,1-1.66.25,5.52,5.52,0,0,1-.71-.05c-.23,0-.43-.07-.62-.11a4.12,4.12,0,0,1-.45-.14,1,1,0,0,1-.28-.16.56.56,0,0,1-.12-.2,1.61,1.61,0,0,1,0-.35,2.11,2.11,0,0,1,0-.3.65.65,0,0,1,0-.17.2.2,0,0,1,.08-.08l.11,0a.84.84,0,0,1,.26.06,3.64,3.64,0,0,0,.43.14,5.39,5.39,0,0,0,.6.14,4.52,4.52,0,0,0,.78.07,2.94,2.94,0,0,0,1.41-.32,2.81,2.81,0,0,0,1-.85,4.05,4.05,0,0,0,.55-1.23A5.94,5.94,0,0,0,14.65,11a5.48,5.48,0,0,1-1.08.46,4.44,4.44,0,0,1-1.43.21,4.32,4.32,0,0,1-1.54-.25,2.68,2.68,0,0,1-1-.68,2.61,2.61,0,0,1-.54-1A4.74,4.74,0,0,1,8.9,8.37,4.52,4.52,0,0,1,9.11,7a3.06,3.06,0,0,1,.66-1.15A3.17,3.17,0,0,1,10.91,5a4.36,4.36,0,0,1,1.66-.29,3.76,3.76,0,0,1,1.21.17,2.82,2.82,0,0,1,.92.5,2.94,2.94,0,0,1,.66.78,4.53,4.53,0,0,1,.43,1A7.82,7.82,0,0,1,16,8.51,13,13,0,0,1,16.1,9.94Zm-1.48-.16A10.28,10.28,0,0,0,14.48,8a3.82,3.82,0,0,0-.42-1.19,1.67,1.67,0,0,0-.69-.66,2,2,0,0,0-.94-.21,2.1,2.1,0,0,0-.94.2,1.81,1.81,0,0,0-.63.53,2.34,2.34,0,0,0-.37.76,3.15,3.15,0,0,0-.12.87,3.66,3.66,0,0,0,.11.91,1.7,1.7,0,0,0,.34.7,1.51,1.51,0,0,0,.62.45,2.52,2.52,0,0,0,.93.15,3.91,3.91,0,0,0,1.23-.19A3.47,3.47,0,0,0,14.62,9.78Z"/>
  </g>
</svg><svg xmlns="http://www.w3.org/2000/svg" width="25" height="20" viewBox="0 0 25 20" x="100" y="20">
  <title>calc_CE</title>
  <g id="BCG-largeIcons">
    <path d="M12.47,12.8V13s0,.09,0,.13l0,.09-.09.1a1.38,1.38,0,0,1-.25.19,3.56,3.56,0,0,1-.48.24,4.33,4.33,0,0,1-.66.2,4.12,4.12,0,0,1-.81.08,3.52,3.52,0,0,1-1.37-.25,2.81,2.81,0,0,1-1-.75A3.48,3.48,0,0,1,7,11.78a5.42,5.42,0,0,1-.23-1.68,5.43,5.43,0,0,1,.25-1.73,3.8,3.8,0,0,1,.7-1.29,2.93,2.93,0,0,1,1.08-.8A3.37,3.37,0,0,1,10.24,6a3.6,3.6,0,0,1,.66.06c.21.05.41.1.59.16a2.68,2.68,0,0,1,.48.23,1.51,1.51,0,0,1,.29.2.83.83,0,0,1,.11.13.3.3,0,0,1,0,.1.51.51,0,0,1,0,.13,1.15,1.15,0,0,1,0,.19,1.34,1.34,0,0,1,0,.21.57.57,0,0,1,0,.14.16.16,0,0,1-.05.08.14.14,0,0,1-.09,0A.45.45,0,0,1,12,7.54a4.36,4.36,0,0,0-.39-.26A3.7,3.7,0,0,0,11,7a2.45,2.45,0,0,0-.82-.12,2.17,2.17,0,0,0-1,.21,2.05,2.05,0,0,0-.73.62,2.88,2.88,0,0,0-.47,1A4.9,4.9,0,0,0,7.91,10a4.7,4.7,0,0,0,.16,1.31,2.68,2.68,0,0,0,.46,1,2,2,0,0,0,.73.58,2.43,2.43,0,0,0,1,.19,2.86,2.86,0,0,0,.82-.11,3,3,0,0,0,.59-.26c.17-.09.3-.18.41-.25a.44.44,0,0,1,.24-.12l.08,0s0,0,0,.07a.46.46,0,0,1,0,.14A1.55,1.55,0,0,1,12.47,12.8Z"/>
    <path d="M18.19,13.47a1,1,0,0,1,0,.19.47.47,0,0,1,0,.14.29.29,0,0,1-.07.08.15.15,0,0,1-.09,0H14.23a.43.43,0,0,1-.26-.09.39.39,0,0,1-.12-.33v-7A.39.39,0,0,1,14,6.19a.43.43,0,0,1,.26-.09h3.71a.15.15,0,0,1,.09,0,.28.28,0,0,1,.06.08.5.5,0,0,1,0,.13,1.34,1.34,0,0,1,0,.21,1.15,1.15,0,0,1,0,.19.4.4,0,0,1,0,.13L18,6.94l-.09,0H14.89V9.41H17.5a.12.12,0,0,1,.09,0,.16.16,0,0,1,.07.07.4.4,0,0,1,0,.13,1.27,1.27,0,0,1,0,.2,1,1,0,0,1,0,.19.5.5,0,0,1,0,.13.23.23,0,0,1-.07.07l-.09,0H14.89V13H18l.09,0,.07.08a.4.4,0,0,1,0,.13A1.21,1.21,0,0,1,18.19,13.47Z"/>
  </g>
</svg><svg xmlns="http://www.w3.org/2000/svg" width="25" height="20" viewBox="0 0 25 20" x="125" y="20">
  <title>calc_C</title>
  <g id="BCG-largeIcons">
    <path d="M15.33,12.8V13s0,.09,0,.13l0,.09-.09.1a1.38,1.38,0,0,1-.25.19,3.56,3.56,0,0,1-.48.24,4.33,4.33,0,0,1-.66.2A4.12,4.12,0,0,1,13,14a3.52,3.52,0,0,1-1.37-.25,2.81,2.81,0,0,1-1-.75,3.48,3.48,0,0,1-.66-1.22,5.42,5.42,0,0,1-.23-1.68,5.43,5.43,0,0,1,.25-1.73,3.8,3.8,0,0,1,.7-1.29,2.93,2.93,0,0,1,1.08-.8A3.37,3.37,0,0,1,13.1,6a3.6,3.6,0,0,1,.66.06c.21.05.41.1.59.16a2.68,2.68,0,0,1,.48.23,1.51,1.51,0,0,1,.29.2.83.83,0,0,1,.11.13.3.3,0,0,1,0,.1.51.51,0,0,1,0,.13,1.15,1.15,0,0,1,0,.19,1.34,1.34,0,0,1,0,.21.57.57,0,0,1,0,.14.16.16,0,0,1-.05.08.14.14,0,0,1-.09,0,.45.45,0,0,1-.23-.12,4.36,4.36,0,0,0-.39-.26A3.7,3.7,0,0,0,13.9,7a2.45,2.45,0,0,0-.82-.12,2.17,2.17,0,0,0-.95.21,2.05,2.05,0,0,0-.73.62,2.88,2.88,0,0,0-.47,1A4.9,4.9,0,0,0,10.77,10a4.7,4.7,0,0,0,.16,1.31,2.68,2.68,0,0,0,.46,1,2,2,0,0,0,.73.58,2.43,2.43,0,0,0,1,.19,2.86,2.86,0,0,0,.82-.11,3,3,0,0,0,.59-.26c.17-.09.3-.18.41-.25a.44.44,0,0,1,.24-.12l.08,0s0,0,.05.07a.46.46,0,0,1,0,.14A1.55,1.55,0,0,1,15.33,12.8Z"/>
  </g>
</svg><svg xmlns="http://www.w3.org/2000/svg" width="25" height="20" viewBox="0 0 25 20" x="0" y="40">
  <title>calc_MC</title>
  <g id="BCG-largeIcons">
    <path d="M13.1,13.75a.19.19,0,0,1,0,.08l-.09.06-.16,0-.25,0-.25,0-.16,0a.18.18,0,0,1-.08-.06.11.11,0,0,1,0-.08V7h0L9.3,13.78l-.05.07-.1.05-.15,0H8.58l-.16,0a.19.19,0,0,1-.09-.05s0,0,0-.06L5.66,7h0v6.8a.11.11,0,0,1,0,.08.18.18,0,0,1-.08.06l-.16,0-.26,0-.25,0-.16,0-.08-.06a.19.19,0,0,1,0-.08V6.57a.42.42,0,0,1,.44-.47h.63a1.83,1.83,0,0,1,.35,0,1,1,0,0,1,.25.12.61.61,0,0,1,.19.2,1.46,1.46,0,0,1,.13.28l2.23,5.65h0l2.32-5.63a2.26,2.26,0,0,1,.15-.31.85.85,0,0,1,.17-.2.65.65,0,0,1,.22-.11,1,1,0,0,1,.26,0h.67l.18,0a.42.42,0,0,1,.14.09.34.34,0,0,1,.09.14.48.48,0,0,1,0,.22Z"/>
    <path d="M20.39,12.8a.91.91,0,0,1,0,.17.51.51,0,0,1,0,.13.36.36,0,0,1,0,.09.58.58,0,0,1-.08.1,1.58,1.58,0,0,1-.26.19,3,3,0,0,1-.48.24,4.56,4.56,0,0,1-.65.2A4.12,4.12,0,0,1,18,14a3.57,3.57,0,0,1-1.38-.25,2.78,2.78,0,0,1-1-.75A3.5,3.5,0,0,1,15,11.78a5.73,5.73,0,0,1-.23-1.68A5.73,5.73,0,0,1,15,8.37a3.65,3.65,0,0,1,.71-1.29,2.93,2.93,0,0,1,1.08-.8A3.33,3.33,0,0,1,18.16,6a3.49,3.49,0,0,1,.65.06c.22.05.41.1.59.16a2.48,2.48,0,0,1,.49.23,1.94,1.94,0,0,1,.29.2l.11.13,0,.1,0,.13c0,.06,0,.12,0,.19s0,.15,0,.21a.57.57,0,0,1,0,.14.28.28,0,0,1-.06.08.11.11,0,0,1-.08,0,.44.44,0,0,1-.24-.12,4.36,4.36,0,0,0-.39-.26A3.56,3.56,0,0,0,19,7a2.49,2.49,0,0,0-.82-.12,2.11,2.11,0,0,0-.95.21,2,2,0,0,0-.73.62,2.88,2.88,0,0,0-.47,1A4.88,4.88,0,0,0,15.82,10,4.7,4.7,0,0,0,16,11.35a2.86,2.86,0,0,0,.46,1,2,2,0,0,0,.74.58,2.4,2.4,0,0,0,1,.19A2.78,2.78,0,0,0,19,13a3.08,3.08,0,0,0,.6-.26l.4-.25a.49.49,0,0,1,.25-.12l.07,0a.1.1,0,0,1,.05.07,1.06,1.06,0,0,1,0,.14C20.38,12.63,20.39,12.71,20.39,12.8Z"/>
  </g>
</svg><svg xmlns="http://www.w3.org/2000/svg" width="25" height="20" viewBox="0 0 25 20" x="25" y="40">
  <title>calc_MR</title>
  <g id="BCG-largeIcons">
    <path d="M13.11,13.8a.24.24,0,0,1,0,.09L13,14l-.16,0-.26,0-.25,0-.16,0-.09-.06a.24.24,0,0,1,0-.09V6.87h0l-2.79,7a.24.24,0,0,1-.06.08.19.19,0,0,1-.09.05L9,14H8.52l-.15,0-.1,0a.1.1,0,0,1,0-.07l-2.67-7h0V13.8a.24.24,0,0,1,0,.09L5.44,14l-.17,0L5,14l-.26,0L4.6,14l-.08-.06a.24.24,0,0,1,0-.09V6.48a.45.45,0,0,1,.14-.37A.48.48,0,0,1,4.94,6h.65a1.25,1.25,0,0,1,.35,0,.85.85,0,0,1,.26.11.74.74,0,0,1,.18.21,1.11,1.11,0,0,1,.13.29l2.27,5.76h0l2.35-5.75a3,3,0,0,1,.15-.31,1.3,1.3,0,0,1,.18-.21A.91.91,0,0,1,11.71,6,1.12,1.12,0,0,1,12,6h.68a.47.47,0,0,1,.17,0,.36.36,0,0,1,.15.08.38.38,0,0,1,.09.15.48.48,0,0,1,0,.22Z"/>
    <path d="M20.5,13.8a.24.24,0,0,1,0,.09.18.18,0,0,1-.08.06.61.61,0,0,1-.17,0h-.55a.61.61,0,0,1-.17,0,.24.24,0,0,1-.09-.08.67.67,0,0,1-.06-.12l-.73-1.88c-.08-.21-.17-.41-.26-.59a2.36,2.36,0,0,0-.33-.46,1.37,1.37,0,0,0-.45-.3,1.64,1.64,0,0,0-.62-.11h-.7V13.8a.14.14,0,0,1,0,.09l-.08.06L16,14l-.26,0-.25,0-.16,0-.09-.06a.24.24,0,0,1,0-.09V6.43a.39.39,0,0,1,.12-.33.41.41,0,0,1,.27-.1h1.68l.5,0,.36,0A3.2,3.2,0,0,1,19,6.3a2,2,0,0,1,.59.44,1.75,1.75,0,0,1,.36.6A2.29,2.29,0,0,1,20,8.1a2.31,2.31,0,0,1-.11.72,1.71,1.71,0,0,1-.31.56,2,2,0,0,1-.48.42,3.05,3.05,0,0,1-.63.3,1.38,1.38,0,0,1,.35.22,1.77,1.77,0,0,1,.3.31,3.5,3.5,0,0,1,.26.43q.12.24.24.54l.71,1.75a2.47,2.47,0,0,1,.11.31A.5.5,0,0,1,20.5,13.8ZM18.91,8.21a1.41,1.41,0,0,0-.2-.79A1.22,1.22,0,0,0,18,7a1.7,1.7,0,0,0-.35-.06l-.5,0h-.89V9.56h1A2.22,2.22,0,0,0,18,9.45a1.28,1.28,0,0,0,.5-.28,1,1,0,0,0,.3-.43A1.51,1.51,0,0,0,18.91,8.21Z"/>
  </g>
</svg><svg xmlns="http://www.w3.org/2000/svg" width="25" height="20" viewBox="0 0 25 20" x="50" y="40">
  <title>calc_M+</title>
  <g id="BCG-largeIcons">
    <path d="M13.81,13.8a.24.24,0,0,1,0,.09L13.7,14l-.16,0-.26,0L13,14l-.16,0a.23.23,0,0,1-.09-.06.14.14,0,0,1,0-.09V6.87h0l-2.8,7a.24.24,0,0,1-.06.08.19.19,0,0,1-.09.05l-.16,0H9.2A.62.62,0,0,1,9,14a.19.19,0,0,1-.09,0,.18.18,0,0,1,0-.07l-2.68-7h0V13.8a.24.24,0,0,1,0,.09L6.1,14l-.17,0-.26,0-.25,0-.16,0a.18.18,0,0,1-.08-.06.14.14,0,0,1,0-.09V6.48a.45.45,0,0,1,.14-.37A.51.51,0,0,1,5.6,6h.65A1.25,1.25,0,0,1,6.6,6a.76.76,0,0,1,.26.11.77.77,0,0,1,.19.21,1.57,1.57,0,0,1,.13.29l2.28,5.76h0l2.37-5.75A1.28,1.28,0,0,1,12,6.35a.92.92,0,0,1,.17-.21A.91.91,0,0,1,12.4,6a1.14,1.14,0,0,1,.28,0h.68a.47.47,0,0,1,.17,0,.36.36,0,0,1,.15.08.38.38,0,0,1,.09.15.48.48,0,0,1,0,.22Zm6-3.29a.88.88,0,0,1,0,.17.83.83,0,0,1,0,.12.23.23,0,0,1-.07.07l-.08,0H17.89v1.94a.08.08,0,0,1,0,.07.1.1,0,0,1-.06,0,.34.34,0,0,1-.12,0h-.37a.33.33,0,0,1-.13,0,.1.1,0,0,1-.06,0,.08.08,0,0,1,0-.07V10.89H15.36l-.09,0-.06-.07a.83.83,0,0,1,0-.12.88.88,0,0,1,0-.17.79.79,0,0,1,0-.17.83.83,0,0,1,0-.12.22.22,0,0,1,.06-.07.12.12,0,0,1,.08,0h1.76V8.19a.11.11,0,0,1,0-.08l.06-.06a.33.33,0,0,1,.13,0h.37a.34.34,0,0,1,.12,0l.06.06a.11.11,0,0,1,0,.08v1.94h1.76a.12.12,0,0,1,.08,0,.22.22,0,0,1,.06.07.34.34,0,0,1,0,.12A.79.79,0,0,1,19.85,10.51Z"/>
  </g>
</svg><svg xmlns="http://www.w3.org/2000/svg" width="25" height="20" viewBox="0 0 25 20" x="75" y="40">
  <title>calc_+</title>
  <g id="BCG-largeIcons">
    <path d="M16.25,10a2.16,2.16,0,0,1,0,.28.84.84,0,0,1-.07.19.27.27,0,0,1-.1.11.31.31,0,0,1-.13,0h-2.8v3.11a.2.2,0,0,1,0,.11.31.31,0,0,1-.11.08.71.71,0,0,1-.19.06l-.3,0-.29,0a.68.68,0,0,1-.2-.06.31.31,0,0,1-.11-.08.2.2,0,0,1,0-.11V10.62H9.07a.28.28,0,0,1-.13,0,.27.27,0,0,1-.1-.11.84.84,0,0,1-.07-.19,2.16,2.16,0,0,1,0-.28,2.13,2.13,0,0,1,0-.27.69.69,0,0,1,.07-.19.27.27,0,0,1,.1-.11.19.19,0,0,1,.12,0h2.81V6.3a.28.28,0,0,1,0-.13A.53.53,0,0,1,12,6.08l.2-.06.29,0,.3,0,.19.06a.53.53,0,0,1,.11.09.28.28,0,0,1,0,.13V9.4h2.81a.19.19,0,0,1,.12,0,.27.27,0,0,1,.1.11.47.47,0,0,1,.07.19A2.13,2.13,0,0,1,16.25,10Z"/>
  </g>
</svg><svg xmlns="http://www.w3.org/2000/svg" width="25" height="20" viewBox="0 0 25 20" x="100" y="40">
  <title>calc_-</title>
  <g id="BCG-largeIcons">
    <path d="M17,9.5a.58.58,0,0,1-.1.38.36.36,0,0,1-.29.12H8.36a.38.38,0,0,1-.3-.12A.58.58,0,0,1,8,9.5a.59.59,0,0,1,.1-.38A.38.38,0,0,1,8.36,9h8.29a.36.36,0,0,1,.29.12A.58.58,0,0,1,17,9.5Z"/>
  </g>
</svg><svg xmlns="http://www.w3.org/2000/svg" width="25" height="20" viewBox="0 0 25 20" x="125" y="40">
  <title>calc_x</title>
  <g id="BCG-largeIcons">
    <path d="M13.34,10l2.55,2.55a.36.36,0,0,1,.07.1.2.2,0,0,1,0,.11.46.46,0,0,1-.08.23,1,1,0,0,1-.21.24,1.5,1.5,0,0,1-.25.19.4.4,0,0,1-.21.07l-.09,0-.1-.06-2.56-2.57L9.93,13.41a.27.27,0,0,1-.1.06.25.25,0,0,1-.12,0,.37.37,0,0,1-.22-.08,1.43,1.43,0,0,1-.23-.2A.94.94,0,0,1,9.08,13,.49.49,0,0,1,9,12.75a.26.26,0,0,1,.09-.19L11.66,10,9.1,7.43A.36.36,0,0,1,9,7.33a.2.2,0,0,1,0-.11A.4.4,0,0,1,9.09,7a.91.91,0,0,1,.2-.24,1.44,1.44,0,0,1,.25-.18.4.4,0,0,1,.21-.07.28.28,0,0,1,.2.09l2.56,2.57L15.07,6.6a.31.31,0,0,1,.09-.07.2.2,0,0,1,.11,0,.4.4,0,0,1,.23.08,1.43,1.43,0,0,1,.23.2,1.33,1.33,0,0,1,.19.24.49.49,0,0,1,.08.22.36.36,0,0,1,0,.1.2.2,0,0,1-.07.09Z"/>
  </g>
</svg><svg xmlns="http://www.w3.org/2000/svg" width="25" height="20" viewBox="0 0 25 20" x="0" y="60">
  <title>calc_div</title>
  <g id="BCG-largeIcons">
    <path d="M17,10.49a1.66,1.66,0,0,1,0,.24.52.52,0,0,1-.07.15.31.31,0,0,1-.11.09.32.32,0,0,1-.14,0H8.32a.32.32,0,0,1-.14,0,.22.22,0,0,1-.1-.09A.34.34,0,0,1,8,10.73a1.66,1.66,0,0,1,0-.24,1.38,1.38,0,0,1,0-.22.34.34,0,0,1,.06-.16.27.27,0,0,1,.1-.08.32.32,0,0,1,.14,0h8.34a.32.32,0,0,1,.14,0l.11.08a.48.48,0,0,1,.07.16A1.38,1.38,0,0,1,17,10.49ZM13.57,7.12a2.47,2.47,0,0,1-.05.52.74.74,0,0,1-.18.34.67.67,0,0,1-.33.19,1.78,1.78,0,0,1-.51.06A1.88,1.88,0,0,1,12,8.17.78.78,0,0,1,11.66,8a.73.73,0,0,1-.17-.34,1.9,1.9,0,0,1-.06-.52,2,2,0,0,1,.06-.52.77.77,0,0,1,.17-.35A.78.78,0,0,1,12,6.06,1.88,1.88,0,0,1,12.5,6a1.78,1.78,0,0,1,.51.06.67.67,0,0,1,.33.19.78.78,0,0,1,.18.35A2.54,2.54,0,0,1,13.57,7.12Zm0,6.79a2.44,2.44,0,0,1-.05.51.66.66,0,0,1-.18.33.67.67,0,0,1-.33.19,1.78,1.78,0,0,1-.51.06,1.88,1.88,0,0,1-.51-.06.78.78,0,0,1-.33-.19.65.65,0,0,1-.17-.33,1.88,1.88,0,0,1-.06-.51,2,2,0,0,1,.06-.53.76.76,0,0,1,.17-.36.67.67,0,0,1,.33-.18,1.88,1.88,0,0,1,.51-.06,1.78,1.78,0,0,1,.51.06.59.59,0,0,1,.33.18.77.77,0,0,1,.18.36A2.58,2.58,0,0,1,13.57,13.91Z"/>
  </g>
</svg><svg xmlns="http://www.w3.org/2000/svg" width="25" height="20" viewBox="0 0 25 20" x="25" y="60">
  <title>calc_+-</title>
  <g id="BCG-largeIcons">
    <path d="M16,9.51a.76.76,0,0,1-.09.41.26.26,0,0,1-.21.12H13.08v2.73a.16.16,0,0,1,0,.09.26.26,0,0,1-.1.07l-.18.05-.27,0-.27,0a.74.74,0,0,1-.19-.05.26.26,0,0,1-.1-.07.16.16,0,0,1,0-.09V10H9.3a.26.26,0,0,1-.21-.12A.76.76,0,0,1,9,9.51a1.66,1.66,0,0,1,0-.24.34.34,0,0,1,.06-.16L9.17,9l.12,0h2.62V6.25a.17.17,0,0,1,0-.1.27.27,0,0,1,.1-.08A.74.74,0,0,1,12.23,6l.27,0,.27,0,.18.05a.27.27,0,0,1,.1.08.17.17,0,0,1,0,.1V9h2.63a.23.23,0,0,1,.11,0,.41.41,0,0,1,.1.09.34.34,0,0,1,.06.16A1.66,1.66,0,0,1,16,9.51Zm0,5a1.4,1.4,0,0,1,0,.23.48.48,0,0,1-.07.16.35.35,0,0,1-.1.08l-.11,0H9.3l-.11,0a.32.32,0,0,1-.09-.08A.48.48,0,0,1,9,14.74a.75.75,0,0,1,0-.23,1.54,1.54,0,0,1,0-.24.52.52,0,0,1,.07-.15A.2.2,0,0,1,9.18,14l.11,0h6.42a.21.21,0,0,1,.12,0l.09.09a.34.34,0,0,1,.06.15A1.54,1.54,0,0,1,16,14.51Z"/>
  </g>
</svg><svg xmlns="http://www.w3.org/2000/svg" width="25" height="20" viewBox="0 0 25 20" x="50" y="60">
  <title>calc_</title>
  <g id="BCG-largeIcons">
    <path d="M13,14a1.17,1.17,0,0,1-.2.8,1,1,0,0,1-.72.2,1,1,0,0,1-.7-.2,1.08,1.08,0,0,1-.2-.77,1.17,1.17,0,0,1,.2-.8,1,1,0,0,1,.72-.2,1,1,0,0,1,.71.19A1.13,1.13,0,0,1,13,14Z"/>
  </g>
</svg><svg xmlns="http://www.w3.org/2000/svg" width="25" height="20" viewBox="0 0 25 20" x="75" y="60">
  <title>calc_sqr</title>
  <g id="BCG-largeIcons">
    <path d="M13.17,15.69a.36.36,0,0,1-.08.15.29.29,0,0,1-.16.1,1.46,1.46,0,0,1-.27.05h-.39l-.43,0a.93.93,0,0,1-.27-.05.34.34,0,0,1-.17-.09.36.36,0,0,1-.08-.15L9.19,9.11H8.3a.28.28,0,0,1-.13,0A.22.22,0,0,1,8.08,9,.71.71,0,0,1,8,8.79a2,2,0,0,1,0-.56A.85.85,0,0,1,8.08,8a.27.27,0,0,1,.1-.11.28.28,0,0,1,.13,0h1.6a.64.64,0,0,1,.36.08.43.43,0,0,1,.19.23l1.82,6.23h0l2.3-9.25a.37.37,0,0,1,.07-.14A.22.22,0,0,1,14.8,5a1.22,1.22,0,0,1,.25,0l.39,0,.38,0A.53.53,0,0,1,16,5a.15.15,0,0,1,.08.12,1.11,1.11,0,0,1,0,.23Z"/>
  </g>
</svg><svg xmlns="http://www.w3.org/2000/svg" width="25" height="20" viewBox="0 0 25 20" x="100" y="60">
  <title>calc_per</title>
  <g id="BCG-largeIcons">
    <path d="M11.88,7.15a4.58,4.58,0,0,1-.15,1.22,2.7,2.7,0,0,1-.45,1,2.23,2.23,0,0,1-.78.61,2.67,2.67,0,0,1-1.1.21,2.56,2.56,0,0,1-1.09-.2,1.81,1.81,0,0,1-.75-.58,2.49,2.49,0,0,1-.42-.93A5.19,5.19,0,0,1,7,7.18,4.89,4.89,0,0,1,7.14,6a2.74,2.74,0,0,1,.45-.94,2.1,2.1,0,0,1,.76-.62,2.59,2.59,0,0,1,1.11-.23,2.52,2.52,0,0,1,1.16.24,1.87,1.87,0,0,1,.75.63,2.57,2.57,0,0,1,.4.94A5.78,5.78,0,0,1,11.88,7.15ZM9.4,15.75a.25.25,0,0,1-.1.12.52.52,0,0,1-.15.07L8.94,16h-.3a1.3,1.3,0,0,1-.31,0,.38.38,0,0,1-.17-.1.17.17,0,0,1,0-.14.37.37,0,0,1,.08-.19L16.1,4.25a.41.41,0,0,1,.26-.2l.21,0h.3a1.26,1.26,0,0,1,.3,0,.3.3,0,0,1,.17.09.16.16,0,0,1,0,.15.43.43,0,0,1-.08.19Zm1.25-8.56a4.51,4.51,0,0,0-.07-.87,1.78,1.78,0,0,0-.21-.64A1,1,0,0,0,10,5.3a1.25,1.25,0,0,0-.56-.13,1.13,1.13,0,0,0-.54.13.94.94,0,0,0-.37.37,1.63,1.63,0,0,0-.21.6,4.4,4.4,0,0,0-.07.86,4.59,4.59,0,0,0,.08,1,1.65,1.65,0,0,0,.24.64.83.83,0,0,0,.38.32,1.47,1.47,0,0,0,.53.09A1.11,1.11,0,0,0,10.05,9a1.14,1.14,0,0,0,.36-.39A2.06,2.06,0,0,0,10.6,8,5.27,5.27,0,0,0,10.65,7.19Zm7.92,5.63a4.71,4.71,0,0,1-.15,1.23A2.74,2.74,0,0,1,18,15a2.23,2.23,0,0,1-.78.61,2.66,2.66,0,0,1-1.1.22,2.63,2.63,0,0,1-1.1-.21,1.76,1.76,0,0,1-.74-.58,2.5,2.5,0,0,1-.43-.93,5.22,5.22,0,0,1-.13-1.25,4.89,4.89,0,0,1,.14-1.18,2.92,2.92,0,0,1,.44-.94,2.13,2.13,0,0,1,.77-.62,2.86,2.86,0,0,1,2.27,0,2,2,0,0,1,.75.63,2.57,2.57,0,0,1,.4.94A5.78,5.78,0,0,1,18.57,12.82Zm-1.23,0a4.51,4.51,0,0,0-.07-.87,2.09,2.09,0,0,0-.21-.64,1,1,0,0,0-.38-.38,1.25,1.25,0,0,0-.56-.12,1.13,1.13,0,0,0-.54.12.94.94,0,0,0-.37.37A1.81,1.81,0,0,0,15,12a5.11,5.11,0,0,0-.07.85,4.68,4.68,0,0,0,.09,1,1.85,1.85,0,0,0,.23.63.86.86,0,0,0,.39.32,1.44,1.44,0,0,0,.53.09,1.07,1.07,0,0,0,.57-.13,1,1,0,0,0,.36-.39,2.05,2.05,0,0,0,.2-.62A6.78,6.78,0,0,0,17.34,12.86Z"/>
  </g>
</svg><svg xmlns="http://www.w3.org/2000/svg" width="25" height="20" viewBox="0 0 25 20" x="125" y="60">
  <title>calc_eq</title>
  <g id="BCG-largeIcons">
    <path d="M16,8.5a.55.55,0,0,1-.1.39.29.29,0,0,1-.22.11H9.31a.29.29,0,0,1-.22-.11A.62.62,0,0,1,9,8.5a.74.74,0,0,1,.08-.38A.28.28,0,0,1,9.31,8h6.37a.29.29,0,0,1,.24.12A.74.74,0,0,1,16,8.5Zm-.08,2.62a.29.29,0,0,0-.24-.12H9.31a.28.28,0,0,0-.23.12A.74.74,0,0,0,9,11.5a.62.62,0,0,0,.09.39.29.29,0,0,0,.22.11h6.37a.29.29,0,0,0,.22-.11.55.55,0,0,0,.1-.39A.74.74,0,0,0,15.92,11.12Z"/>
  </g>
</svg><svg xmlns="http://www.w3.org/2000/svg" width="25" height="20" viewBox="0 0 25 20" x="0" y="80">
  <title>calc_1x</title>
  <g id="BCG-largeIcons">
    <path d="M18.87,9.71a.73.73,0,0,1-.23.59.76.76,0,0,1-.49.18,1,1,0,0,1-.36-.07l-.33-.12a5.2,5.2,0,0,0-.56.81,9.85,9.85,0,0,0-.61,1.17c.09.44.16.81.23,1.12s.15.61.22.92a1.56,1.56,0,0,0,.33.67.73.73,0,0,0,.57.25,2,2,0,0,0,.36-.05,1.51,1.51,0,0,0,.35-.1l-.1.45a5.09,5.09,0,0,1-.78.36,1.69,1.69,0,0,1-.56.08.9.9,0,0,1-.63-.22,1.72,1.72,0,0,1-.39-.9c-.08-.33-.13-.61-.18-.84s-.09-.45-.13-.67c-.17.32-.31.58-.41.8a9.35,9.35,0,0,1-.54.92,2.86,2.86,0,0,1-.61.71.87.87,0,0,1-.56.22A.55.55,0,0,1,13,15.8a.77.77,0,0,1-.16-.52.8.8,0,0,1,.19-.55.65.65,0,0,1,.54-.23.78.78,0,0,1,.33.07,2.17,2.17,0,0,0,.35.15c.13-.16.31-.42.54-.76a9.37,9.37,0,0,0,.63-1.19c-.07-.32-.15-.68-.23-1.06s-.15-.73-.22-1a1.55,1.55,0,0,0-.33-.71.72.72,0,0,0-.47-.15,1.39,1.39,0,0,0-.33.05l-.33.11.11-.45a7,7,0,0,1,.74-.36A1.39,1.39,0,0,1,14.85,9a.88.88,0,0,1,.62.23,1.68,1.68,0,0,1,.39.89c.12.5.18.81.2.92s.06.34.12.66c.17-.33.31-.62.42-.85a7.94,7.94,0,0,1,.53-.92,2.33,2.33,0,0,1,.63-.74A.93.93,0,0,1,18.31,9a.51.51,0,0,1,.4.2A.7.7,0,0,1,18.87,9.71ZM8.37,14.82l7.7-10a.5.5,0,0,0-.79-.61l-7.7,10A.49.49,0,0,0,8,15,.47.47,0,0,0,8.37,14.82ZM8.82,10h-.9V5.34a5.62,5.62,0,0,1-.85.5,7.12,7.12,0,0,1-.94.38V5.51a5.59,5.59,0,0,0,1.31-.7,2.87,2.87,0,0,0,.8-.8h.58Z"/>
  </g>
</svg><svg xmlns="http://www.w3.org/2000/svg" width="25" height="20" viewBox="0 0 25 20" x="25" y="80">
  <title>calc_bs</title>
  <g id="BCG-largeIcons">
    <path d="M8.49,7.5h.64c-.33.66-.58,1.13-.75,1.4a11.51,11.51,0,0,1-.9,1.21H21V11H7.48a9.65,9.65,0,0,1,1.68,2.61H8.5a16.41,16.41,0,0,0-1.88-1.84,8.38,8.38,0,0,0-1.62-1v-.38a6.83,6.83,0,0,0,1.55-1A16.68,16.68,0,0,0,8.49,7.5Z"/>
  </g>
</svg><svg xmlns="http://www.w3.org/2000/svg" width="25" height="20" viewBox="0 0 25 20" x="50" y="80">
  <title>calc_sin</title>
  <g id="BCG-largeIcons">
    <path d="M10.79,12.28a1.67,1.67,0,0,1-.16.73,1.34,1.34,0,0,1-.43.54,2,2,0,0,1-.66.34,3.24,3.24,0,0,1-.85.11,3.31,3.31,0,0,1-.55,0,2.8,2.8,0,0,1-.46-.12,2,2,0,0,1-.35-.14l-.21-.13A.39.39,0,0,1,7,13.4a1.12,1.12,0,0,1,0-.29,1,1,0,0,1,0-.19l0-.13a.1.1,0,0,1,0-.06.11.11,0,0,1,.08,0,.51.51,0,0,1,.19.08,2.13,2.13,0,0,0,.31.18,3.28,3.28,0,0,0,.45.17,1.74,1.74,0,0,0,.59.09,1.63,1.63,0,0,0,.45-.06A1,1,0,0,0,9.51,13a.65.65,0,0,0,.23-.26.89.89,0,0,0,.08-.38A.6.6,0,0,0,9.7,12a1.18,1.18,0,0,0-.31-.27A2.73,2.73,0,0,0,9,11.49l-.49-.19a4.52,4.52,0,0,1-.5-.23,1.88,1.88,0,0,1-.43-.31,1.37,1.37,0,0,1-.3-.44,1.41,1.41,0,0,1-.12-.61,1.53,1.53,0,0,1,.12-.6,1.24,1.24,0,0,1,.37-.51,1.88,1.88,0,0,1,.61-.35,2.66,2.66,0,0,1,.85-.13,2.15,2.15,0,0,1,.43,0,1.93,1.93,0,0,1,.38.09,1.46,1.46,0,0,1,.3.11l.18.11a.38.38,0,0,1,.09.09l0,.08s0,.06,0,.11a.71.71,0,0,1,0,.16.91.91,0,0,1,0,.17.21.21,0,0,1,0,.12.1.1,0,0,1-.05.07.07.07,0,0,1-.06,0,.35.35,0,0,1-.16-.06,1.22,1.22,0,0,0-.26-.14A2.35,2.35,0,0,0,9.56,9a1.49,1.49,0,0,0-.49-.07,1.42,1.42,0,0,0-.44.06.82.82,0,0,0-.31.16.67.67,0,0,0-.19.25.75.75,0,0,0-.06.31.6.6,0,0,0,.12.38,1.05,1.05,0,0,0,.31.28,2.15,2.15,0,0,0,.43.21l.5.2c.17.07.33.14.5.23a1.66,1.66,0,0,1,.43.3,1.35,1.35,0,0,1,.31.43A1.32,1.32,0,0,1,10.79,12.28Zm2.49-5.7a.63.63,0,0,1-.13.47.67.67,0,0,1-.48.13.68.68,0,0,1-.47-.12.64.64,0,0,1-.13-.47.64.64,0,0,1,.13-.47A.73.73,0,0,1,12.68,6a.68.68,0,0,1,.47.12A.62.62,0,0,1,13.28,6.58Zm-.11,7.16a.11.11,0,0,1,0,.08.22.22,0,0,1-.07.06l-.15,0h-.48l-.15,0a.18.18,0,0,1-.08-.06.11.11,0,0,1,0-.08V8.39a.12.12,0,0,1,0-.08.18.18,0,0,1,.08-.06l.15,0h.48l.15,0a.22.22,0,0,1,.07.06.13.13,0,0,1,0,.08Zm6.42,0a.11.11,0,0,1,0,.08.22.22,0,0,1-.07.06l-.15,0h-.48l-.15,0-.08-.06a.19.19,0,0,1,0-.08V10.61a3.56,3.56,0,0,0-.07-.74,1.51,1.51,0,0,0-.21-.48A.87.87,0,0,0,18,9.08,1.19,1.19,0,0,0,17.47,9a1.28,1.28,0,0,0-.73.26A4,4,0,0,0,16,10v3.74a.11.11,0,0,1,0,.08l-.08.06-.15,0h-.48l-.15,0L15,13.82a.19.19,0,0,1,0-.08V8.39a.19.19,0,0,1,0-.08.22.22,0,0,1,.07-.06l.14,0h.44a.4.4,0,0,1,.13,0l.07.06a.19.19,0,0,1,0,.08V9.1a3.09,3.09,0,0,1,.9-.74,1.9,1.9,0,0,1,.9-.24,2,2,0,0,1,.9.18,1.62,1.62,0,0,1,.6.49,1.84,1.84,0,0,1,.32.71,4,4,0,0,1,.1,1Z"/>
  </g>
</svg><svg xmlns="http://www.w3.org/2000/svg" width="25" height="20" viewBox="0 0 25 20" x="75" y="80">
  <title>calc_cos</title>
  <g id="BCG-largeIcons">
    <path d="M9.27,12.86c0,.06,0,.12,0,.17a.44.44,0,0,1,0,.13.45.45,0,0,1-.13.2,1.34,1.34,0,0,1-.26.19,3,3,0,0,1-.4.2,3.5,3.5,0,0,1-.49.14,2.5,2.5,0,0,1-.55,0,2.56,2.56,0,0,1-1-.19,1.93,1.93,0,0,1-.76-.56,2.69,2.69,0,0,1-.46-.91A4.24,4.24,0,0,1,5,11a4.26,4.26,0,0,1,.2-1.37,2.51,2.51,0,0,1,.53-.94,2.09,2.09,0,0,1,.8-.55,2.94,2.94,0,0,1,1-.17,2.85,2.85,0,0,1,.51,0,3.88,3.88,0,0,1,.44.13,1.82,1.82,0,0,1,.37.18l.23.17.1.12a.3.3,0,0,1,0,.1.5.5,0,0,1,0,.13v.18a.71.71,0,0,1-.05.33c0,.06-.08.09-.13.09a.33.33,0,0,1-.21-.1,2.94,2.94,0,0,0-.3-.22,2.45,2.45,0,0,0-.43-.22,1.63,1.63,0,0,0-.61-.1,1.24,1.24,0,0,0-1.09.55A2.76,2.76,0,0,0,6,11a4,4,0,0,0,.1.91,2,2,0,0,0,.29.66,1.23,1.23,0,0,0,.48.4,1.59,1.59,0,0,0,.64.12,1.64,1.64,0,0,0,.6-.1,4.6,4.6,0,0,0,.45-.24l.31-.24a.38.38,0,0,1,.21-.1l.07,0a.56.56,0,0,1,.05.08s0,.09,0,.15S9.27,12.78,9.27,12.86Zm6.24-1.95a4.23,4.23,0,0,1-.17,1.22,2.78,2.78,0,0,1-.52,1,2.33,2.33,0,0,1-.87.63,3,3,0,0,1-1.2.22,3.19,3.19,0,0,1-1.17-.19,2.22,2.22,0,0,1-.82-.58,2.48,2.48,0,0,1-.5-.92A4.58,4.58,0,0,1,10.1,11a4.21,4.21,0,0,1,.17-1.21,2.78,2.78,0,0,1,.52-1,2.37,2.37,0,0,1,.86-.63A3,3,0,0,1,12.86,8,3.16,3.16,0,0,1,14,8.2a2,2,0,0,1,.83.58,2.43,2.43,0,0,1,.5.91A4.24,4.24,0,0,1,15.51,10.91Zm-1,.07a3.71,3.71,0,0,0-.08-.83,1.8,1.8,0,0,0-.27-.68A1.22,1.22,0,0,0,13.62,9a1.72,1.72,0,0,0-.8-.17,1.64,1.64,0,0,0-.76.16,1.31,1.31,0,0,0-.52.44,2,2,0,0,0-.31.67,3.33,3.33,0,0,0-.1.86,4.41,4.41,0,0,0,.08.83,2.2,2.2,0,0,0,.27.68,1.39,1.39,0,0,0,.52.47,1.72,1.72,0,0,0,.8.17,1.6,1.6,0,0,0,.75-.16,1.34,1.34,0,0,0,.53-.44,2,2,0,0,0,.31-.67A3.85,3.85,0,0,0,14.48,11Zm5.89,1.23a1.64,1.64,0,0,1-.16.74,1.49,1.49,0,0,1-.43.54,2.07,2.07,0,0,1-.68.34,2.87,2.87,0,0,1-.85.11,3.16,3.16,0,0,1-.55,0,2.68,2.68,0,0,1-.47-.12,1.69,1.69,0,0,1-.35-.14l-.22-.13a.39.39,0,0,1-.09-.17,1.21,1.21,0,0,1,0-.3,1.09,1.09,0,0,1,0-.19l0-.13a.18.18,0,0,1,.05-.07l.08,0a.39.39,0,0,1,.19.09l.32.17a2.34,2.34,0,0,0,.45.18,2.1,2.1,0,0,0,.59.08,2.16,2.16,0,0,0,.46-.05,1.13,1.13,0,0,0,.35-.16.78.78,0,0,0,.24-.27.92.92,0,0,0,.08-.38.61.61,0,0,0-.12-.39,1.21,1.21,0,0,0-.31-.28,2.46,2.46,0,0,0-.43-.21l-.5-.19c-.17-.07-.33-.15-.5-.24a1.88,1.88,0,0,1-.43-.31,1.44,1.44,0,0,1-.31-.45,1.43,1.43,0,0,1-.12-.62A1.62,1.62,0,0,1,16.79,9a1.67,1.67,0,0,1,.37-.51,2,2,0,0,1,.62-.35A2.51,2.51,0,0,1,18.64,8a2,2,0,0,1,.43,0,2.15,2.15,0,0,1,.4.09,1.6,1.6,0,0,1,.29.11l.19.11s.07.06.08.09a.11.11,0,0,1,0,.08s0,.07,0,.11a.81.81,0,0,1,0,.16,1,1,0,0,1,0,.18.35.35,0,0,1,0,.12.1.1,0,0,1-.05.07.08.08,0,0,1-.07,0,.37.37,0,0,1-.15-.06A1.67,1.67,0,0,0,19.51,9a2,2,0,0,0-.38-.14,1.51,1.51,0,0,0-.5-.07,1.53,1.53,0,0,0-.45.06.76.76,0,0,0-.31.16.79.79,0,0,0-.19.25.78.78,0,0,0-.06.31.61.61,0,0,0,.12.39,1.05,1.05,0,0,0,.31.28,2.58,2.58,0,0,0,.44.22l.5.2c.17.07.34.14.51.23a1.9,1.9,0,0,1,.44.3,1.4,1.4,0,0,1,.31.44A1.34,1.34,0,0,1,20.37,12.21Z"/>
  </g>
</svg><svg xmlns="http://www.w3.org/2000/svg" width="25" height="20" viewBox="0 0 25 20" x="100" y="80">
  <title>calc_tan</title>
  <g id="BCG-largeIcons">
    <path d="M8.55,13.34a1.76,1.76,0,0,1,0,.27.35.35,0,0,1-.08.15.39.39,0,0,1-.14.1,1.41,1.41,0,0,1-.22.06L7.82,14l-.27,0a2.24,2.24,0,0,1-.73-.11,1.23,1.23,0,0,1-.49-.34A1.37,1.37,0,0,1,6.05,13,3.23,3.23,0,0,1,6,12.15V9H5.2a.18.18,0,0,1-.15-.09.82.82,0,0,1,0-.32,1.09,1.09,0,0,1,0-.19,1,1,0,0,1,0-.13.12.12,0,0,1,.07-.07.11.11,0,0,1,.08,0H6V6.85a.31.31,0,0,1,0-.08.18.18,0,0,1,.08-.06l.15,0H6.7a.39.39,0,0,1,.15,0,.18.18,0,0,1,.08.06.16.16,0,0,1,0,.08v1.3H8.35a.11.11,0,0,1,.08,0,.12.12,0,0,1,.07.07.4.4,0,0,1,0,.13c0,.05,0,.12,0,.19a.65.65,0,0,1-.06.32A.15.15,0,0,1,8.35,9H7v3a1.73,1.73,0,0,0,.16.85.64.64,0,0,0,.6.29.88.88,0,0,0,.24,0l.2-.06L8.3,13l.11,0h.06a.09.09,0,0,1,0,.06l0,.11S8.55,13.26,8.55,13.34Zm5.25.4a.14.14,0,0,1,0,.11l-.13.05a1.57,1.57,0,0,1-.5,0,.32.32,0,0,1-.14-.05.14.14,0,0,1,0-.11V13.2a2.68,2.68,0,0,1-.8.59,2.1,2.1,0,0,1-.92.21,2.67,2.67,0,0,1-.78-.11,1.76,1.76,0,0,1-.59-.32,1.62,1.62,0,0,1-.38-.52,1.75,1.75,0,0,1-.14-.7,1.66,1.66,0,0,1,.19-.8,1.61,1.61,0,0,1,.54-.56,2.71,2.71,0,0,1,.86-.34,5.58,5.58,0,0,1,1.14-.11h.75v-.42a2.31,2.31,0,0,0-.07-.56,1,1,0,0,0-.21-.4,1.08,1.08,0,0,0-.39-.24,1.93,1.93,0,0,0-.58-.08,2.29,2.29,0,0,0-.66.09,4.23,4.23,0,0,0-.51.19L10,9.31a.5.5,0,0,1-.22.09l-.09,0a.28.28,0,0,1-.06-.08.34.34,0,0,1,0-.12.91.91,0,0,1,0-.17,1.21,1.21,0,0,1,0-.23.42.42,0,0,1,.1-.17A1.72,1.72,0,0,1,10,8.43a4,4,0,0,1,.46-.2A4.75,4.75,0,0,1,11,8.09a3.62,3.62,0,0,1,1.62.07,1.66,1.66,0,0,1,.66.39,1.57,1.57,0,0,1,.37.64,3,3,0,0,1,.11.89Zm-1-2.48H12a3,3,0,0,0-.71.07,1.54,1.54,0,0,0-.5.2.83.83,0,0,0-.29.33,1,1,0,0,0-.09.44.87.87,0,0,0,.26.67,1.06,1.06,0,0,0,.76.25,1.39,1.39,0,0,0,.72-.2,2.89,2.89,0,0,0,.71-.61Zm7.49,2.47a.13.13,0,0,1,0,.09.16.16,0,0,1-.08,0l-.15,0h-.49l-.15,0a.16.16,0,0,1-.08,0,.24.24,0,0,1,0-.09V10.55a3,3,0,0,0-.08-.75A1.23,1.23,0,0,0,19,9.32.86.86,0,0,0,18.67,9a1.13,1.13,0,0,0-.51-.11,1.25,1.25,0,0,0-.74.27,4.11,4.11,0,0,0-.79.78v3.79a.24.24,0,0,1,0,.09l-.08,0-.15,0h-.49a.53.53,0,0,1-.16,0,.13.13,0,0,1-.07,0,.13.13,0,0,1,0-.09V8.3a.19.19,0,0,1,0-.08.28.28,0,0,1,.08-.06.4.4,0,0,1,.13,0h.45a.33.33,0,0,1,.13,0,.14.14,0,0,1,.07.06.11.11,0,0,1,0,.08V9a3.38,3.38,0,0,1,.92-.75A1.94,1.94,0,0,1,18.37,8a2,2,0,0,1,.91.18,1.64,1.64,0,0,1,.6.5,1.7,1.7,0,0,1,.33.72,4,4,0,0,1,.1,1Z"/>
  </g>
</svg><svg xmlns="http://www.w3.org/2000/svg" width="25" height="20" viewBox="0 0 25 20" x="125" y="80">
  <title>calc_x2</title>
  <g id="BCG-largeIcons">
    <path d="M13,9.64a.73.73,0,0,1-.23.59.77.77,0,0,1-.49.19,1.4,1.4,0,0,1-.37-.07l-.32-.12A6.36,6.36,0,0,0,11,11a11.79,11.79,0,0,0-.6,1.18c.08.43.16.8.23,1.11s.14.62.22.93a1.67,1.67,0,0,0,.32.67.76.76,0,0,0,.58.25,2.06,2.06,0,0,0,.35-.05,1.55,1.55,0,0,0,.36-.11l-.1.46a7.09,7.09,0,0,1-.78.36,2.12,2.12,0,0,1-.57.08.87.87,0,0,1-.62-.22,1.64,1.64,0,0,1-.4-.9L9.83,14c0-.22-.08-.45-.13-.67l-.41.8a9.43,9.43,0,0,1-.54.91,3,3,0,0,1-.6.72.94.94,0,0,1-.57.21.51.51,0,0,1-.41-.18A.78.78,0,0,1,7,15.21a.89.89,0,0,1,.19-.55.68.68,0,0,1,.54-.23.84.84,0,0,1,.34.08l.34.15A7.61,7.61,0,0,0,9,13.89a7.24,7.24,0,0,0,.63-1.18c-.07-.32-.14-.68-.22-1.07s-.16-.73-.23-1a1.42,1.42,0,0,0-.32-.7.69.69,0,0,0-.47-.16A1.06,1.06,0,0,0,8,9.82l-.32.1.1-.45a8.16,8.16,0,0,1,.75-.36A1.29,1.29,0,0,1,9,9a.85.85,0,0,1,.62.23,1.76,1.76,0,0,1,.39.88c.11.51.18.82.2.93s.05.33.11.66c.18-.34.32-.62.42-.86a9.77,9.77,0,0,1,.53-.92,2.61,2.61,0,0,1,.63-.74,1,1,0,0,1,.56-.2.5.5,0,0,1,.4.19A.75.75,0,0,1,13,9.64Zm4.85.92a.66.66,0,0,1,0,.15l0,.11a.15.15,0,0,1,0,.06l-.07,0h-3l-.11,0a.15.15,0,0,1-.07-.05.23.23,0,0,1-.05-.1.91.91,0,0,1,0-.17.76.76,0,0,1,0-.16.37.37,0,0,1,0-.12l.06-.11.08-.11,1.07-1.22a6.11,6.11,0,0,0,.59-.75,4,4,0,0,0,.35-.61,2.39,2.39,0,0,0,.16-.5,2.12,2.12,0,0,0,0-.42,1.15,1.15,0,0,0-.06-.37.87.87,0,0,0-.18-.31.67.67,0,0,0-.28-.21A.93.93,0,0,0,16,5.59a1.4,1.4,0,0,0-.47.08,2,2,0,0,0-.36.17,2.36,2.36,0,0,0-.26.17.33.33,0,0,1-.16.08l-.05,0a.09.09,0,0,1,0-.06.31.31,0,0,1,0-.11.76.76,0,0,1,0-.16V5.62a.64.64,0,0,1,0-.09.11.11,0,0,1,0-.07.33.33,0,0,1,.06-.08l.17-.13a2.2,2.2,0,0,1,.31-.16l.4-.14a2.42,2.42,0,0,1,.47,0,1.79,1.79,0,0,1,.68.12,1.37,1.37,0,0,1,.48.33,1.36,1.36,0,0,1,.29.49,2,2,0,0,1,.09.6,3.6,3.6,0,0,1,0,.56,2.35,2.35,0,0,1-.19.61,4.12,4.12,0,0,1-.43.72,9.05,9.05,0,0,1-.73.92l-.85,1h2.33l.06,0,.06.07a.62.62,0,0,1,0,.1A.61.61,0,0,1,17.85,10.56Z"/>
  </g>
</svg><svg xmlns="http://www.w3.org/2000/svg" width="25" height="20" viewBox="0 0 25 20" x="0" y="100">
  <title>calc_x3</title>
  <g id="BCG-largeIcons">
    <path d="M13,9.7a.78.78,0,0,1-.23.58.74.74,0,0,1-.49.19,1.09,1.09,0,0,1-.37-.07l-.33-.12a6.47,6.47,0,0,0-.56.8,11.78,11.78,0,0,0-.61,1.18q.13.64.24,1.11c.06.31.14.62.22.93a1.46,1.46,0,0,0,.32.66.71.71,0,0,0,.57.25,1.86,1.86,0,0,0,.36,0,1.45,1.45,0,0,0,.35-.11l-.1.46a5.71,5.71,0,0,1-.78.36A2,2,0,0,1,11,16a.87.87,0,0,1-.62-.22,1.72,1.72,0,0,1-.4-.9L9.83,14c0-.23-.09-.45-.13-.67-.17.31-.3.58-.41.8a9.43,9.43,0,0,1-.54.91,2.76,2.76,0,0,1-.61.72.91.91,0,0,1-.56.21.49.49,0,0,1-.41-.19A.76.76,0,0,1,7,15.26a.87.87,0,0,1,.19-.55.68.68,0,0,1,.54-.23.84.84,0,0,1,.34.08l.34.15A7.61,7.61,0,0,0,9,13.94a7.24,7.24,0,0,0,.63-1.18c-.07-.32-.14-.68-.22-1.07s-.16-.72-.23-1A1.41,1.41,0,0,0,8.8,10a.7.7,0,0,0-.47-.16A1.05,1.05,0,0,0,8,9.87a2.39,2.39,0,0,0-.32.11l.1-.46q.41-.21.75-.36A1.57,1.57,0,0,1,9,9a.85.85,0,0,1,.61.23,1.72,1.72,0,0,1,.4.88c.11.51.17.82.19.93l.12.66.42-.85a7.92,7.92,0,0,1,.53-.93,2.77,2.77,0,0,1,.63-.74,1,1,0,0,1,.55-.2.48.48,0,0,1,.4.19A.72.72,0,0,1,13,9.7Zm4.8-.45a2,2,0,0,1-.12.72,1.64,1.64,0,0,1-.36.55,1.67,1.67,0,0,1-.59.36A2.37,2.37,0,0,1,16,11a2.46,2.46,0,0,1-.49-.05,3,3,0,0,1-.41-.11,1.4,1.4,0,0,1-.3-.14.61.61,0,0,1-.15-.1l0-.06,0-.08s0-.06,0-.11a.71.71,0,0,1,0-.16.57.57,0,0,1,0-.22.09.09,0,0,1,.08-.06.31.31,0,0,1,.15.07,1.92,1.92,0,0,0,.29.15,2.56,2.56,0,0,0,.4.16,1.72,1.72,0,0,0,.52.07,1.21,1.21,0,0,0,.48-.08.93.93,0,0,0,.35-.21A1,1,0,0,0,17,9.74a1.42,1.42,0,0,0,.07-.42A1.1,1.1,0,0,0,17,8.87a1,1,0,0,0-.27-.34,1.24,1.24,0,0,0-.43-.22,2,2,0,0,0-.58-.08h-.58a.12.12,0,0,1-.05-.05.3.3,0,0,1,0-.1.61.61,0,0,1,0-.15.46.46,0,0,1,0-.14.19.19,0,0,1,0-.09.08.08,0,0,1,.05-.05l.07,0h.46a1.43,1.43,0,0,0,.48-.07,1.11,1.11,0,0,0,.36-.23A.89.89,0,0,0,16.73,7a1.25,1.25,0,0,0,.08-.45,1.27,1.27,0,0,0,0-.34.9.9,0,0,0-.16-.29.77.77,0,0,0-.27-.19A.92.92,0,0,0,16,5.64a1.23,1.23,0,0,0-.44.08,2.28,2.28,0,0,0-.35.17,2,2,0,0,0-.26.17.29.29,0,0,1-.14.08l0,0s0,0,0,0a.87.87,0,0,1,0-.1V5.71a.2.2,0,0,1,0-.09.09.09,0,0,1,0-.07.18.18,0,0,1,.05-.08l.16-.12a1.3,1.3,0,0,1,.29-.16,1.87,1.87,0,0,1,.4-.14,2.44,2.44,0,0,1,.48,0,1.85,1.85,0,0,1,.65.1,1.23,1.23,0,0,1,.46.3,1,1,0,0,1,.28.45,1.76,1.76,0,0,1,.09.58,1.61,1.61,0,0,1-.07.51,1.15,1.15,0,0,1-.19.42,1,1,0,0,1-.31.31,1,1,0,0,1-.42.18h0a1.39,1.39,0,0,1,.5.15,1.45,1.45,0,0,1,.39.3,1.4,1.4,0,0,1,.34.94Z"/>
  </g>
</svg><svg xmlns="http://www.w3.org/2000/svg" width="25" height="20" viewBox="0 0 25 20" x="25" y="100">
  <title>calc_ex</title>
  <g id="BCG-largeIcons">
    <path d="M12.27,10.4a1.79,1.79,0,0,1-.44,1.23,3.06,3.06,0,0,1-1.31.81,9.58,9.58,0,0,1-1.26.38c-.43.09-.9.17-1.42.23a2.78,2.78,0,0,0,.4,1.63,1.31,1.31,0,0,0,1.15.56,2.15,2.15,0,0,0,1.19-.33,4.19,4.19,0,0,0,1-1l.39.28a4.25,4.25,0,0,1-1.35,1.32A3.17,3.17,0,0,1,9,16a2.37,2.37,0,0,1-1.82-.67,2.63,2.63,0,0,1-.63-1.89,4.93,4.93,0,0,1,.27-1.63,4.62,4.62,0,0,1,.77-1.41,3.9,3.9,0,0,1,1.23-1A3.29,3.29,0,0,1,10.37,9a2.25,2.25,0,0,1,1.44.39A1.26,1.26,0,0,1,12.27,10.4ZM11,10.23A.93.93,0,0,0,11,9.82a.46.46,0,0,0-.19-.22.62.62,0,0,0-.25-.11l-.28,0a1.91,1.91,0,0,0-1.49.89,4.52,4.52,0,0,0-.87,2.21c.32,0,.67-.1,1.07-.19a4,4,0,0,0,1-.32,2,2,0,0,0,.83-.75A2.06,2.06,0,0,0,11,10.23ZM18.58,5.6a.58.58,0,0,1-.2.5.61.61,0,0,1-.42.16,1,1,0,0,1-.32-.06l-.28-.1a4.86,4.86,0,0,0-.49.69,8.12,8.12,0,0,0-.53,1c.07.37.14.69.2,1s.12.53.19.8a1.27,1.27,0,0,0,.28.57.62.62,0,0,0,.5.22,2.39,2.39,0,0,0,.31,0l.31-.09-.09.39a4.31,4.31,0,0,1-.68.31,1.87,1.87,0,0,1-.49.07.76.76,0,0,1-.54-.19A1.53,1.53,0,0,1,16,10l-.15-.72-.12-.58c-.14.27-.26.5-.35.69a8.74,8.74,0,0,1-.47.79,2.73,2.73,0,0,1-.53.62.8.8,0,0,1-.49.18.47.47,0,0,1-.37-.16.69.69,0,0,1-.14-.45.74.74,0,0,1,.17-.48A.58.58,0,0,1,14,9.72a.62.62,0,0,1,.29.07l.3.12a6,6,0,0,0,.47-.66,6.36,6.36,0,0,0,.55-1c-.06-.28-.12-.59-.2-.92s-.13-.63-.19-.88a1.31,1.31,0,0,0-.29-.61.59.59,0,0,0-.41-.13,1.1,1.1,0,0,0-.29,0L14,5.84,14,5.45c.24-.13.46-.23.65-.31A1.27,1.27,0,0,1,15.08,5a.76.76,0,0,1,.54.19A1.46,1.46,0,0,1,16,6l.18.79c0,.1.05.29.1.57.15-.29.27-.53.36-.73a9.12,9.12,0,0,1,.46-.8,2.5,2.5,0,0,1,.55-.64A.91.91,0,0,1,18.1,5a.47.47,0,0,1,.35.17A.6.6,0,0,1,18.58,5.6Z"/>
  </g>
</svg><svg xmlns="http://www.w3.org/2000/svg" width="25" height="20" viewBox="0 0 25 20" x="50" y="100">
  <title>calc_10x</title>
  <g id="BCG-largeIcons">
    <path d="M8.22,15.48a1,1,0,0,1,0,.19.68.68,0,0,1,0,.13.12.12,0,0,1-.07.07.11.11,0,0,1-.07,0H4.23a.09.09,0,0,1-.07,0,.12.12,0,0,1-.07-.07.33.33,0,0,1,0-.13.55.55,0,0,1,0-.19.53.53,0,0,1,0-.19.47.47,0,0,1,0-.14.16.16,0,0,1,.06-.08.11.11,0,0,1,.08,0H5.74V9l-1.4.92L4.17,10a.15.15,0,0,1-.1,0A.23.23,0,0,1,4,9.82a1.7,1.7,0,0,1,0-.24A1,1,0,0,1,4,9.4a.37.37,0,0,1,0-.12l0-.09.08-.07L5.83,7.94l.06,0,.08,0,.12,0h.39l.14,0A.22.22,0,0,1,6.69,8,.17.17,0,0,1,6.7,8v7H8a.13.13,0,0,1,.08,0,.24.24,0,0,1,.06.08.47.47,0,0,1,0,.14A.92.92,0,0,1,8.22,15.48Zm6.5-3.59a9.71,9.71,0,0,1-.13,1.68,4,4,0,0,1-.44,1.3,2.23,2.23,0,0,1-.8.84,2.26,2.26,0,0,1-1.21.3A2.25,2.25,0,0,1,11,15.74a2,2,0,0,1-.75-.78,4,4,0,0,1-.41-1.29,11.22,11.22,0,0,1-.12-1.74,9.52,9.52,0,0,1,.13-1.67A4.2,4.2,0,0,1,10.28,9a2.16,2.16,0,0,1,.8-.84,2.26,2.26,0,0,1,1.21-.3,2.38,2.38,0,0,1,1.15.26,2,2,0,0,1,.75.79,3.78,3.78,0,0,1,.41,1.28A11.36,11.36,0,0,1,14.72,11.89Zm-1,.07c0-.39,0-.75,0-1.07a7.84,7.84,0,0,0-.12-.83,2.78,2.78,0,0,0-.19-.63A1.79,1.79,0,0,0,13.1,9a1.08,1.08,0,0,0-.39-.25,1.43,1.43,0,0,0-.48-.07,1.16,1.16,0,0,0-.77.24A1.62,1.62,0,0,0,11,9.6a3.58,3.58,0,0,0-.23,1,12,12,0,0,0-.07,1.24,10.79,10.79,0,0,0,.09,1.52,3.43,3.43,0,0,0,.26,1,1.4,1.4,0,0,0,.47.58,1.36,1.36,0,0,0,.69.17,1.2,1.2,0,0,0,1-.42,2.17,2.17,0,0,0,.28-.5,4.9,4.9,0,0,0,.18-.64c0-.24.07-.49.09-.76S13.73,12.26,13.73,12ZM21,5.1a.63.63,0,0,1-.2.51.69.69,0,0,1-.43.16,1,1,0,0,1-.32-.06l-.28-.11a4.51,4.51,0,0,0-.49.7,7.34,7.34,0,0,0-.53,1c.07.38.14.69.2,1s.12.53.19.8a1.38,1.38,0,0,0,.28.57.63.63,0,0,0,.5.22l.32,0,.3-.09-.08.39a4.76,4.76,0,0,1-.68.31,1.63,1.63,0,0,1-.5.07.76.76,0,0,1-.54-.19,1.49,1.49,0,0,1-.35-.78l-.15-.72-.12-.58c-.14.27-.26.5-.35.69s-.26.46-.48.79a2.5,2.5,0,0,1-.52.62.82.82,0,0,1-.49.18.47.47,0,0,1-.37-.16.64.64,0,0,1-.14-.45.69.69,0,0,1,.17-.48.56.56,0,0,1,.46-.19.8.8,0,0,1,.3.06,2.08,2.08,0,0,0,.3.13,7.71,7.71,0,0,0,.47-.66,7,7,0,0,0,.55-1c-.06-.28-.13-.58-.2-.92s-.13-.62-.2-.88a1.19,1.19,0,0,0-.28-.6.62.62,0,0,0-.41-.14,1,1,0,0,0-.29,0l-.28.09L16.45,5a6.18,6.18,0,0,1,.65-.31,1.27,1.27,0,0,1,.39-.12.72.72,0,0,1,.54.2,1.45,1.45,0,0,1,.34.76c.1.43.16.7.18.8s.05.28.1.57c.15-.29.27-.54.37-.74a5.81,5.81,0,0,1,.46-.8A2.16,2.16,0,0,1,20,4.67a.88.88,0,0,1,.48-.17.44.44,0,0,1,.35.17A.6.6,0,0,1,21,5.1Z"/>
  </g>
</svg><svg xmlns="http://www.w3.org/2000/svg" width="25" height="20" viewBox="0 0 25 20" x="75" y="100">
  <title>calc_ln</title>
  <g id="BCG-largeIcons">
    <path d="M9.94,13.82a.11.11,0,0,1,0,.08.18.18,0,0,1-.07,0L9.7,14H9.24l-.15,0a.13.13,0,0,1-.07,0,.19.19,0,0,1,0-.08V6.18A.24.24,0,0,1,9,6.1a.13.13,0,0,1,.07,0l.15,0H9.7l.15,0a.18.18,0,0,1,.07,0,.12.12,0,0,1,0,.08Zm6.18,0a.19.19,0,0,1,0,.08A.16.16,0,0,1,16,14a.39.39,0,0,1-.14,0h-.46l-.15,0a.13.13,0,0,1-.07,0,.11.11,0,0,1,0-.08v-3a3.41,3.41,0,0,0-.06-.71,1.77,1.77,0,0,0-.2-.46.89.89,0,0,0-.34-.3,1.07,1.07,0,0,0-.49-.1,1.23,1.23,0,0,0-.71.25,4,4,0,0,0-.74.74v3.59a.19.19,0,0,1,0,.08.16.16,0,0,1-.08,0,.39.39,0,0,1-.14,0h-.46l-.15,0a.1.1,0,0,1-.07,0,.11.11,0,0,1,0-.08V8.68a.19.19,0,0,1,0-.08l.07-.06a.28.28,0,0,1,.13,0h.42a.23.23,0,0,1,.13,0,.22.22,0,0,1,.07.06.19.19,0,0,1,0,.08v.68a3.25,3.25,0,0,1,.87-.72,1.81,1.81,0,0,1,.87-.22,2,2,0,0,1,.86.17,1.47,1.47,0,0,1,.57.47,1.7,1.7,0,0,1,.31.68,3.71,3.71,0,0,1,.1.94Z"/>
  </g>
</svg><svg xmlns="http://www.w3.org/2000/svg" width="25" height="20" viewBox="0 0 25 20" x="100" y="100">
  <title>calc_log</title>
  <g id="BCG-largeIcons">
    <path d="M6.94,12.78a.19.19,0,0,1,0,.08l-.08.05a.39.39,0,0,1-.14,0H6.24l-.15,0A.13.13,0,0,1,6,12.86a.19.19,0,0,1,0-.08V5.18A.24.24,0,0,1,6,5.1a.13.13,0,0,1,.07,0l.15,0H6.7a.39.39,0,0,1,.14,0l.08,0a.24.24,0,0,1,0,.08Zm6.49-2.62a3.87,3.87,0,0,1-.16,1.16,2.45,2.45,0,0,1-.49.9,2.16,2.16,0,0,1-.82.6,2.9,2.9,0,0,1-1.14.21,2.85,2.85,0,0,1-1.1-.19,1.92,1.92,0,0,1-.79-.54,2.41,2.41,0,0,1-.46-.87,4.12,4.12,0,0,1-.16-1.16,3.8,3.8,0,0,1,.17-1.15A2.28,2.28,0,0,1,9,8.21a2.1,2.1,0,0,1,.81-.59,2.91,2.91,0,0,1,1.15-.21,3.09,3.09,0,0,1,1.1.18,2.09,2.09,0,0,1,.78.55,2.43,2.43,0,0,1,.47.87A4.11,4.11,0,0,1,13.43,10.16Zm-1,.07a4,4,0,0,0-.08-.79,2,2,0,0,0-.25-.65,1.36,1.36,0,0,0-.48-.44,1.61,1.61,0,0,0-.76-.16,1.59,1.59,0,0,0-.72.15,1.36,1.36,0,0,0-.5.42,2,2,0,0,0-.29.64,3.32,3.32,0,0,0-.09.8,4,4,0,0,0,.07.8,2,2,0,0,0,.26.64,1.39,1.39,0,0,0,.49.44,1.56,1.56,0,0,0,.76.16,1.58,1.58,0,0,0,.71-.15,1.26,1.26,0,0,0,.5-.41,1.79,1.79,0,0,0,.29-.64A3.47,3.47,0,0,0,12.46,10.23ZM19.09,7.9a.52.52,0,0,1-.05.28.16.16,0,0,1-.14.09h-.73a1.18,1.18,0,0,1,.27.45,1.54,1.54,0,0,1,.09.52,1.9,1.9,0,0,1-.15.78,1.59,1.59,0,0,1-.4.58,1.79,1.79,0,0,1-.63.36,2.59,2.59,0,0,1-.81.13A1.87,1.87,0,0,1,16,11a1.2,1.2,0,0,1-.44-.2.81.81,0,0,0-.17.23.73.73,0,0,0-.06.3.4.4,0,0,0,.18.33.84.84,0,0,0,.49.14l1.34.06A2.5,2.5,0,0,1,18,12a1.75,1.75,0,0,1,.55.26,1.27,1.27,0,0,1,.37.43,1.35,1.35,0,0,1,.13.59,1.56,1.56,0,0,1-.15.67,1.59,1.59,0,0,1-.45.56,2.27,2.27,0,0,1-.78.38,4.05,4.05,0,0,1-1.11.14,5.23,5.23,0,0,1-1.06-.1,2.49,2.49,0,0,1-.71-.29,1.14,1.14,0,0,1-.41-.44,1.26,1.26,0,0,1-.12-.55,1.47,1.47,0,0,1,0-.36,1.43,1.43,0,0,1,.14-.34,2.1,2.1,0,0,1,.24-.3,3.09,3.09,0,0,1,.32-.29.89.89,0,0,1-.55-.82,1.38,1.38,0,0,1,.14-.62,2.21,2.21,0,0,1,.36-.49,1.64,1.64,0,0,1-.28-.48,1.71,1.71,0,0,1-.11-.64,1.94,1.94,0,0,1,.15-.78,1.64,1.64,0,0,1,1-1,2.32,2.32,0,0,1,.8-.13l.44,0,.37.07H18.9a.18.18,0,0,1,.15.1A.71.71,0,0,1,19.09,7.9Zm-1,5.4a.58.58,0,0,0-.27-.51,1.4,1.4,0,0,0-.73-.19l-1.33,0-.3.27a1.71,1.71,0,0,0-.18.25.77.77,0,0,0-.1.23,1.79,1.79,0,0,0,0,.23.59.59,0,0,0,.37.56,2.35,2.35,0,0,0,1.05.19,2.55,2.55,0,0,0,.72-.08,1.31,1.31,0,0,0,.46-.22.73.73,0,0,0,.25-.31A1,1,0,0,0,18.1,13.3Zm-.47-4.06a1,1,0,0,0-1.11-1.11,1,1,0,0,0-.47.1.86.86,0,0,0-.34.25,1,1,0,0,0-.2.36,1.61,1.61,0,0,0-.06.44,1,1,0,0,0,1.09,1.08,1.34,1.34,0,0,0,.48-.08.86.86,0,0,0,.34-.25.91.91,0,0,0,.2-.36A1.55,1.55,0,0,0,17.63,9.24Z"/>
  </g>
</svg><svg xmlns="http://www.w3.org/2000/svg" width="25" height="20" viewBox="0 0 25 20" x="125" y="100">
  <title>calc_pi</title>
  <g id="BCG-largeIcons">
    <path d="M15.5,12.38a1,1,0,0,1,0,.28.26.26,0,0,1-.06.14.36.36,0,0,1-.12.08l-.2.06-.24,0-.27,0a2.38,2.38,0,0,1-.55-.06,1,1,0,0,1-.44-.24,1.41,1.41,0,0,1-.32-.54,3.54,3.54,0,0,1-.2-.91A13.75,13.75,0,0,1,13,9.85c0-.55,0-1.21.11-2h-2c0,.67,0,1.27-.05,1.8s-.09,1-.16,1.38a6.17,6.17,0,0,1-.22,1c-.08.27-.14.44-.17.52l-.09.19-.06.09-.07.06-.1,0H9.59l-.15,0a.1.1,0,0,1-.07-.05.08.08,0,0,1,0-.07.65.65,0,0,1,0-.18l.13-.29a5.22,5.22,0,0,0,.19-.57,7.2,7.2,0,0,0,.23-.94q.09-.54.15-1.26c0-.48.05-1,.05-1.68H9.21a.16.16,0,0,1-.15-.11A.67.67,0,0,1,9,7.44a1.21,1.21,0,0,1,0-.2.47.47,0,0,1,0-.14A.27.27,0,0,1,9.12,7l.09,0H15l.09,0a.27.27,0,0,1,.07.08.47.47,0,0,1,0,.14,1.21,1.21,0,0,1,0,.2.67.67,0,0,1-.06.32.18.18,0,0,1-.15.11h-.94c0,.67-.05,1.24-.05,1.7s0,.86,0,1.18a5.09,5.09,0,0,0,.11.75,1.52,1.52,0,0,0,.16.41.46.46,0,0,0,.19.18l.21,0a1.37,1.37,0,0,0,.38,0l.25-.05h.06l0,.06a.81.81,0,0,1,0,.11S15.5,12.3,15.5,12.38Z"/>
  </g>
</svg></svg>