<svg xmlns="http://www.w3.org/2000/svg" width="13" height="12" viewBox="0 0 13 12">
  <title>editlist-down</title>
  <g id="BCG-largeIcons">
    <g id="editlist-up">
      <path d="M6,11.5a.48.48,0,0,1-.4-.2l-3-4A.54.54,0,0,1,2.5,7V5a.5.5,0,0,1,.31-.46A.43.43,0,0,1,3,4.5a.47.47,0,0,1,.35.15L4.5,5.79V2A.5.5,0,0,1,5,1.5H7a.5.5,0,0,1,.5.5V5.79L8.65,4.65A.47.47,0,0,1,9,4.5a.43.43,0,0,1,.19,0A.5.5,0,0,1,9.5,5V7a.54.54,0,0,1-.1.3l-3,4A.48.48,0,0,1,6,11.5Z" style="fill: #414141"/>
      <path d="M7,2V7L9,5V7L6,11,3,7V5L5,7V2H7M7,1H5A1,1,0,0,0,4,2V4.59l-.29-.3A1,1,0,0,0,3,4a.84.84,0,0,0-.38.08A1,1,0,0,0,2,5V7a1,1,0,0,0,.2.6l3,4a1,1,0,0,0,1.6,0l3-4A1,1,0,0,0,10,7V5a1,1,0,0,0-.62-.92A.84.84,0,0,0,9,4a1,1,0,0,0-.71.29L8,4.59V2A1,1,0,0,0,7,1Z" style="fill: #f6f6f6"/>
    </g>
  </g>
</svg>
