<svg xmlns="http://www.w3.org/2000/svg" width="13" height="12" viewBox="0 0 13 12">
  <title>editlist-new</title>
  <g id="BCG-largeIcons">
    <g id="editlist-new">
      <g>
        <path d="M2.5,11.5v-4h.71l.18.14.82.82h.58l1-1H7.12l.42-.42V6.58a2,2,0,0,1,.58-1.41l.09-.09A2,2,0,0,1,9.62,4.5H11.5a1,1,0,0,1,1,1v6Z" style="fill: #dcb679"/>
        <path d="M9.62,5H11.5a.5.5,0,0,1,.5.5V11H3V8H3L4,9H5L6,8H7.33L8,7.33V6.58a1.48,1.48,0,0,1,.43-1l.09-.09A1.5,1.5,0,0,1,9.62,5M9,7h2V6H9.5a.5.5,0,0,0-.5.5V7m.62-3h0a2.51,2.51,0,0,0-1.77.73l-.08.09A2.44,2.44,0,0,0,7,6.58v.33L6.91,7H5.55l-.29.29L4.59,8H4.41l-.67-.67L3.45,7H2L2,8v4H13V5.5A1.5,1.5,0,0,0,11.5,4Z" style="fill: #f6f6f6"/>
      </g>
      <g>
        <path d="M4,8.5,3.5,8V6.91l-.77.77H2L1.32,7v-.7l.77-.77H1L.5,5V4L1,3.5H2.09l-.77-.77V2L2,1.32h.7l.77.77V1L4,.5H5l.5.5V2.09l.77-.77H7L7.68,2v.7l-.77.77H8l.5.5V5L8,5.5H6.91l.77.77V7L7,7.68h-.7L5.5,6.91V8L5,8.5Zm.5-4.25a.25.25,0,1,0,.25.25A.25.25,0,0,0,4.5,4.25Z" style="fill: #c27c19"/>
        <path d="M5,1V3h.29L6.62,1.67l.71.71L6,3.71V4H8V5H6v.29L7.33,6.62l-.71.71L5.29,6H5V8H4V6H3.71L2.38,7.33l-.71-.71L3,5.29V5H1V4H3V3.71L1.67,2.38l.71-.71L3.71,3H4V1H5M4.5,5.25a.75.75,0,1,0-.75-.75.76.76,0,0,0,.75.75M5,0H4L3,1H1.67L1,1.67V3L0,4V5L1,6V7.33L1.67,8H3L4,9H5L6,8H7.33L8,7.33V6L9,5V4L8,3V1.67L7.33,1H6L5,0Z" style="fill: #f6f6f6"/>
      </g>
    </g>
  </g>
</svg>
