<svg xmlns="http://www.w3.org/2000/svg" width="13" height="12" viewBox="0 0 12 12">
  <title>delete-pro32</title>
  <g id="BCG-largeIcons">
    <g>
      <path d="M9,10.86a1.52,1.52,0,0,1-1.06-.44L6,8.48,4.06,10.42a1.51,1.51,0,0,1-2.13,0l-.35-.35a1.51,1.51,0,0,1,0-2.13L3.53,6,1.58,4.06a1.51,1.51,0,0,1,0-2.13l.35-.35a1.51,1.51,0,0,1,2.13,0L6,3.52,7.94,1.58a1.51,1.51,0,0,1,2.13,0l.35.35a1.51,1.51,0,0,1,0,2.13L8.47,6l1.95,1.94a1.51,1.51,0,0,1,0,2.13l-.35.35A1.52,1.52,0,0,1,9,10.86Z" style="fill: #a1260d"/>
      <path d="M9,2.14a.5.5,0,0,1,.35.15l.35.35a.5.5,0,0,1,0,.71L7.06,6,9.71,8.65a.5.5,0,0,1,0,.71l-.35.35A.5.5,0,0,1,9,9.86a.51.51,0,0,1-.36-.15L6,7.06,3.35,9.71A.51.51,0,0,1,3,9.86a.5.5,0,0,1-.35-.15l-.35-.35a.5.5,0,0,1,0-.71L4.94,6,2.29,3.35a.5.5,0,0,1,0-.71l.35-.35A.5.5,0,0,1,3,2.14a.51.51,0,0,1,.36.15L6,4.94,8.65,2.29A.51.51,0,0,1,9,2.14m0-2A2.49,2.49,0,0,0,7.24.87L6,2.11,4.76.87a2.5,2.5,0,0,0-3.53,0l-.36.36a2.5,2.5,0,0,0,0,3.53L2.11,6,.87,7.24a2.5,2.5,0,0,0,0,3.53l.36.36a2.5,2.5,0,0,0,3.53,0L6,9.89l1.24,1.24a2.5,2.5,0,0,0,3.53,0l.36-.36a2.5,2.5,0,0,0,0-3.53L9.89,6l1.24-1.24a2.5,2.5,0,0,0,0-3.53L10.77.87A2.48,2.48,0,0,0,9,.14Z" style="fill: #fff"/>
    </g>
  </g>
</svg>
