<svg xmlns="http://www.w3.org/2000/svg" width="13" height="12" viewBox="0 0 13 12">
  <title>editlist-up</title>
  <g id="BCG-largeIcons">
    <g id="editlist-down">
      <path d="M5,11.5a.5.5,0,0,1-.5-.5V7.21L3.35,8.35A.47.47,0,0,1,3,8.5a.43.43,0,0,1-.19,0A.5.5,0,0,1,2.5,8V6a.54.54,0,0,1,.1-.3l3-4a.5.5,0,0,1,.8,0l3,4a.54.54,0,0,1,.1.3V8a.5.5,0,0,1-.31.46A.43.43,0,0,1,9,8.5a.47.47,0,0,1-.35-.15L7.5,7.21V11a.5.5,0,0,1-.5.5Z" style="fill: #414141"/>
      <path d="M6,2,9,6V8L7,6v5H5V6L3,8V6L6,2M6,1a1,1,0,0,0-.8.4l-3,4A1,1,0,0,0,2,6V8a1,1,0,0,0,.62.92A.84.84,0,0,0,3,9a1,1,0,0,0,.71-.29L4,8.41V11a1,1,0,0,0,1,1H7a1,1,0,0,0,1-1V8.41l.29.3A1,1,0,0,0,9,9a.84.84,0,0,0,.38-.08A1,1,0,0,0,10,8V6a1,1,0,0,0-.2-.6l-3-4A1,1,0,0,0,6,1Z" style="fill: #f6f6f6"/>
    </g>
  </g>
</svg>
