<?xml version="1.0" encoding="utf-8"?><svg width="72" height="24">
<!--This file was automatically generated by BCGSoft ribbon/toolbar designer-->
<svg xmlns="http://www.w3.org/2000/svg" width="12" height="12" viewBox="0 0 12 12" x="0" y="0">
  <title>FilterIcon_1</title>
  <g id="BCG-largeIcons">
    <g id="FilterIcons">
      <polygon points="9 4 2 4 5.5 8 9 4" style="fill: #606060"/>
    </g>
  </g>
</svg><svg xmlns="http://www.w3.org/2000/svg" width="12" height="12" viewBox="0 0 12 12" x="12" y="0">
  <title>FilterIcon_2</title>
  <g id="BCG-largeIcons">
    <g id="FilterIcons">
      <path d="M3.5,10,1,7H6Zm6-9L8,3H9V9h1V3h1Z" style="fill: #606060"/>
    </g>
  </g>
</svg><svg xmlns="http://www.w3.org/2000/svg" width="12" height="12" viewBox="0 0 12 12" x="24" y="0">
  <title>FilterIcon_3</title>
  <g id="BCG-largeIcons">
    <g id="FilterIcons">
      <path d="M3.5,10,1,7H6Zm6-1L11,7H10V1H9V7H8Z" style="fill: #606060"/>
    </g>
  </g>
</svg><svg xmlns="http://www.w3.org/2000/svg" width="12" height="12" viewBox="0 0 12 12" x="36" y="0">
  <title>FilterIcon_4</title>
  <g id="BCG-largeIcons">
    <g id="FilterIcons">
      <path d="M4,1H4L7,4V8H9V4l3-3ZM2.5,10,0,7H5Z" style="fill: #606060"/>
    </g>
  </g>
</svg><svg xmlns="http://www.w3.org/2000/svg" width="12" height="12" viewBox="0 0 12 12" x="48" y="0">
  <title>FilterIcon_5</title>
  <g id="BCG-largeIcons">
    <g id="FilterIcons">
      <path d="M3,5H2V9H1V5H0L1.5,3ZM4,1H4L7,4V8H9V4l3-3Z" style="fill: #606060"/>
    </g>
  </g>
</svg><svg xmlns="http://www.w3.org/2000/svg" width="12" height="12" viewBox="0 0 12 12" x="60" y="0">
  <title>FilterIcon_6</title>
  <g id="BCG-largeIcons">
    <g id="FilterIcons">
      <path d="M4,1H4L7,4V8H9V4l3-3ZM0,7H1V3H2V7H3L1.5,9Z" style="fill: #606060"/>
    </g>
  </g>
</svg></svg>