<?xml version="1.0" encoding="utf-8"?><svg width="80" height="30">
<!--This file was automatically generated by BCGSoft ribbon/toolbar designer-->
<svg xmlns="http://www.w3.org/2000/svg" width="16" height="15" viewBox="0 0 16 15" x="0" y="0">
  <title>Fax</title>
  <g id="BCG-largeIcons">
    <g id="Fax">
      <rect x="3" y="1" width="10" height="8" style="fill: #fff"/>
      <rect x="0.5" y="9.5" width="15" height="5" rx="1" ry="1" style="fill: gray"/>
      <path d="M14,10H2V0H14ZM3,9H13V1H3Zm11.5,6H1.5A1.5,1.5,0,0,1,0,13.5v-3A1.5,1.5,0,0,1,1.5,9h13A1.5,1.5,0,0,1,16,10.5v3A1.5,1.5,0,0,1,14.5,15Zm-13-5a.5.5,0,0,0-.5.5v3a.5.5,0,0,0,.5.5h13a.5.5,0,0,0,.5-.5v-3a.5.5,0,0,0-.5-.5ZM11,7H5V8h6Zm0-2H5V6h6Zm0-2H5V4h6Z"/>
      <rect x="12" y="11" width="2" height="2" style="fill: red"/>
    </g>
  </g>
</svg><svg xmlns="http://www.w3.org/2000/svg" width="16" height="15" viewBox="0 0 16 15" x="16" y="0">
  <title>Font_TrueType</title>
  <g id="BCG-largeIcons">
    <g id="Font_TrueType">
      <path d="M10.7,1V3.65h-.26a4.38,4.38,0,0,0-.5-1.32,2,2,0,0,0-.77-.64,2.56,2.56,0,0,0-.95-.13H7.5V9.11a3.22,3.22,0,0,0,.08.93.72.72,0,0,0,.32.33,1.35,1.35,0,0,0,.66.14h.32v.27H3.81v-.27h.32a1.37,1.37,0,0,0,.68-.15A.69.69,0,0,0,5.1,10a3,3,0,0,0,.08-.9V1.56h-.7A2,2,0,0,0,3.06,2a2.77,2.77,0,0,0-.79,1.67H2V1Z" style="fill: #8d8d8d"/>
      <path d="M15,4.22V6.87h-.26a4.38,4.38,0,0,0-.5-1.32,2,2,0,0,0-.77-.64,2.56,2.56,0,0,0-1-.13H11.8v7.55a3.22,3.22,0,0,0,.08.93.72.72,0,0,0,.32.33,1.25,1.25,0,0,0,.66.14h.32V14H8.11v-.27h.32a1.34,1.34,0,0,0,.68-.15.71.71,0,0,0,.29-.34,3.1,3.1,0,0,0,.08-.91V4.78h-.7a2,2,0,0,0-1.42.42,2.77,2.77,0,0,0-.79,1.67H6.3V4.22Z" style="fill: #0a37c5"/>
    </g>
  </g>
</svg><svg xmlns="http://www.w3.org/2000/svg" xmlns:xlink="http://www.w3.org/1999/xlink" width="16" height="15" viewBox="0 0 16 15" x="32" y="0">
  <defs>
    <linearGradient id="linear-gradient" x1="2.77" y1="6.12" x2="13.2" y2="8.91" gradientUnits="userSpaceOnUse">
      <stop offset="0.5" stop-color="#3b3b3b"/>
      <stop offset="0.52" stop-color="#354639"/>
      <stop offset="0.56" stop-color="#2a5c35"/>
      <stop offset="0.61" stop-color="#216d33"/>
      <stop offset="0.67" stop-color="#1b7830"/>
      <stop offset="0.76" stop-color="#177f2f"/>
      <stop offset="1" stop-color="#16812f"/>
    </linearGradient>
  </defs>
  <title>Font_OpenType_1</title>
  <g id="BCG-largeIcons">
    <path id="Font_OpenType_2" d="M10.2,1a4,4,0,0,1,2,.5,3.28,3.28,0,0,1,1.38,1.38,4.14,4.14,0,0,1,.47,2,9.25,9.25,0,0,1-1.19,4.41,9.37,9.37,0,0,1-3.14,3.48A7.09,7.09,0,0,1,5.75,14,3.53,3.53,0,0,1,3,12.9a4,4,0,0,1-1-2.7,8.6,8.6,0,0,1,.73-3.54A10.55,10.55,0,0,1,4.59,3.77a9.42,9.42,0,0,1,2.58-2A6.46,6.46,0,0,1,10.2,1Zm-.54.72a1.65,1.65,0,0,0-1.16.42,11.63,11.63,0,0,0-2.08,4,16.75,16.75,0,0,0-1.16,5.69,1.51,1.51,0,0,0,.37,1,1.16,1.16,0,0,0,.87.41A1.38,1.38,0,0,0,7.41,13a7.45,7.45,0,0,0,1.42-2.2A19.91,19.91,0,0,0,10.21,7a15,15,0,0,0,.54-3.77,1.64,1.64,0,0,0-.33-1.1A1,1,0,0,0,9.66,1.72Z" style="fill: url(#linear-gradient)"/>
  </g>
</svg><svg xmlns="http://www.w3.org/2000/svg" xmlns:xlink="http://www.w3.org/1999/xlink" width="16" height="15" viewBox="0 0 16 15" x="48" y="0">
  <defs>
    <linearGradient id="linear-gradient" x1="2.77" y1="6.12" x2="13.2" y2="8.91" gradientUnits="userSpaceOnUse">
      <stop offset="0.5" stop-color="#3b3b3b"/>
      <stop offset="0.52" stop-color="#354639"/>
      <stop offset="0.56" stop-color="#2a5c35"/>
      <stop offset="0.61" stop-color="#216d33"/>
      <stop offset="0.67" stop-color="#1b7830"/>
      <stop offset="0.76" stop-color="#177f2f"/>
      <stop offset="1" stop-color="#16812f"/>
    </linearGradient>
  </defs>
  <title>Font_OpenType_2</title>
  <g id="BCG-largeIcons">
    <path id="Font_OpenType_1" d="M10.2,1a4,4,0,0,1,2,.5,3.28,3.28,0,0,1,1.38,1.38,4.14,4.14,0,0,1,.47,2,9.25,9.25,0,0,1-1.19,4.41,9.37,9.37,0,0,1-3.14,3.48A7.09,7.09,0,0,1,5.75,14,3.53,3.53,0,0,1,3,12.9a4,4,0,0,1-1-2.7,8.6,8.6,0,0,1,.73-3.54A10.55,10.55,0,0,1,4.59,3.77a9.42,9.42,0,0,1,2.58-2A6.46,6.46,0,0,1,10.2,1Zm-.54.72a1.65,1.65,0,0,0-1.16.42,11.63,11.63,0,0,0-2.08,4,16.75,16.75,0,0,0-1.16,5.69,1.51,1.51,0,0,0,.37,1,1.16,1.16,0,0,0,.87.41A1.38,1.38,0,0,0,7.41,13a7.45,7.45,0,0,0,1.42-2.2A19.91,19.91,0,0,0,10.21,7a15,15,0,0,0,.54-3.77,1.64,1.64,0,0,0-.33-1.1A1,1,0,0,0,9.66,1.72Z" style="fill: url(#linear-gradient)"/>
  </g>
</svg><svg xmlns="http://www.w3.org/2000/svg" width="16" height="15" viewBox="0 0 16 15" x="64" y="0">
  <title>Font_PS</title>
  <g id="BCG-largeIcons">
    <path id="Font_PS" d="M14.4,1.19l-2.64,9.05-.27,1.11a1.37,1.37,0,0,0,0,.3.39.39,0,0,0,.12.28.31.31,0,0,0,.24.12,1.39,1.39,0,0,0,.78-.43,10.33,10.33,0,0,0,1-1.25l.48.24A7.75,7.75,0,0,1,12,13.19,3.9,3.9,0,0,1,9.63,14a1.63,1.63,0,0,1-1.19-.4,1.39,1.39,0,0,1-.41-1,8.54,8.54,0,0,1,.44-2l.33-1.1a13.77,13.77,0,0,1-3,3.84A2.91,2.91,0,0,1,4,14a1.91,1.91,0,0,1-1.81-1,4.79,4.79,0,0,1-.55-2.32,10.53,10.53,0,0,1,1.17-4.4,10.94,10.94,0,0,1,3.07-4A4.88,4.88,0,0,1,8.78,1,1.73,1.73,0,0,1,10,1.44a3.07,3.07,0,0,1,.68,1.62l.49-1.68ZM10.05,3.78a2.86,2.86,0,0,0-.34-1.6A.8.8,0,0,0,9,1.84a1.34,1.34,0,0,0-.87.41,10.41,10.41,0,0,0-2,3.43,12.14,12.14,0,0,0-1,4.45,1.79,1.79,0,0,0,.24,1,.67.67,0,0,0,.52.32,1.74,1.74,0,0,0,1.24-.71A11,11,0,0,0,8.77,8.32,10.42,10.42,0,0,0,10.05,3.78Z" style="fill: #ed151f"/>
  </g>
</svg></svg>