<svg xmlns="http://www.w3.org/2000/svg" width="16" height="16" viewBox="0 0 16 16">
  <title>About_1</title>
  <g id="BCG-largeIcons">
    <g id="About">
      <circle cx="8" cy="8" r="8" style="fill: #4a7db1"/>
      <path d="M9,11H7c0-.29,0-.47,0-.54a3.55,3.55,0,0,1,.33-1.63A5.1,5.1,0,0,1,8.6,7.39a9.09,9.09,0,0,0,1.18-1,1.42,1.42,0,0,0,.29-.86,1.43,1.43,0,0,0-.52-1.12,2,2,0,0,0-1.41-.47,2.15,2.15,0,0,0-1.44.49A3.05,3.05,0,0,0,5.91,6H3.85A4.3,4.3,0,0,1,5.07,3.18a4.29,4.29,0,0,1,3-1,4.45,4.45,0,0,1,3.08,1,3.06,3.06,0,0,1,1.14,2.35A2.58,2.58,0,0,1,11.84,7a9.08,9.08,0,0,1-1.79,1.81,3.41,3.41,0,0,0-.89,1A3.33,3.33,0,0,0,9,11ZM7,14V12H9v2Z" style="fill: #fff"/>
    </g>
  </g>
</svg>
