<?xml version="1.0" encoding="utf-8"?><svg width="256" height="64">
<!--This file was automatically generated by BCGSoft ribbon/toolbar designer-->
<svg xmlns="http://www.w3.org/2000/svg" width="32" height="32" viewBox="0 0 32 32" x="0" y="0">
  <title>Info</title>
  <g id="BCG-largeIcons">
    <g id="Info">
      <g>
        <circle cx="16" cy="16" r="13" style="fill: #fff"/>
        <path d="M16,4A12,12,0,1,1,4,16,12,12,0,0,1,16,4m0-2A14,14,0,1,0,30,16,14,14,0,0,0,16,2Z" style="fill: #4d82b8"/>
      </g>
      <path d="M17.41,8.67a1.41,1.41,0,0,1-2.82,0A1.38,1.38,0,0,1,16,7.25,1.35,1.35,0,0,1,17.41,8.67ZM15,24.75V12.2h2V24.75Z" style="fill: #4d82b8"/>
    </g>
  </g>
</svg><svg xmlns="http://www.w3.org/2000/svg" width="32" height="32" viewBox="0 0 32 32" x="32" y="0">
  <title>Error</title>
  <g id="BCG-largeIcons">
    <g id="Error">
      <circle cx="16" cy="16" r="15" style="fill: #d86344"/>
      <line x1="10" y1="10" x2="22" y2="22" style="fill: none;stroke: #fff;stroke-linecap: square;stroke-width: 3.9999997536341394px"/>
      <line x1="10" y1="22" x2="22" y2="10" style="fill: none;stroke: #fff;stroke-linecap: square;stroke-width: 3.9999997536341394px"/>
    </g>
  </g>
</svg><svg xmlns="http://www.w3.org/2000/svg" width="32" height="32" viewBox="0 0 32 32" x="64" y="0">
  <title>Shield</title>
  <g id="BCG-largeIcons">
    <g id="Shield">
      <path d="M30.5,10.36a21.81,21.81,0,0,1-4.07,13.41A17.52,17.52,0,0,1,16,30.5,17.52,17.52,0,0,1,5.57,23.77,21.81,21.81,0,0,1,1.5,10.36,12,12,0,0,1,2.85,4.81,10.46,10.46,0,0,1,5.34,1.5,12.07,12.07,0,0,0,11.2,3.13,7.07,7.07,0,0,0,16,1.5a7.07,7.07,0,0,0,4.8,1.63A12.07,12.07,0,0,0,26.66,1.5a10.46,10.46,0,0,1,2.49,3.31A12,12,0,0,1,30.5,10.36Z" style="fill: #fdd994;stroke: #b89860;stroke-linejoin: round;stroke-width: 0.9666666666666663px"/>
      <path d="M15,8V20h2V8Zm0,14v2h2V22Z"/>
    </g>
  </g>
</svg><svg xmlns="http://www.w3.org/2000/svg" width="32" height="32" viewBox="0 0 32 32" x="96" y="0">
  <title>Ok</title>
  <g id="BCG-largeIcons">
    <g id="Ok">
      <circle cx="16" cy="16" r="15" style="fill: #74a695"/>
      <polyline points="7.43 16.3 13.83 22.96 24.57 9.04" style="fill: none;stroke: #fff;stroke-width: 3.75px"/>
    </g>
  </g>
</svg><svg xmlns="http://www.w3.org/2000/svg" width="32" height="32" viewBox="0 0 32 32" x="128" y="0">
  <title>Warning</title>
  <g id="BCG-largeIcons">
    <g id="Warning">
      <path d="M1.5,30.5h29L16,1.5Z" style="fill: #fce100;stroke: #ffbe09;stroke-linejoin: round;stroke-width: 0.9354838772612689px"/>
      <path d="M15,11V23h2V11Zm0,14v2h2V25Z"/>
    </g>
  </g>
</svg><svg xmlns="http://www.w3.org/2000/svg" width="32" height="32" viewBox="0 0 32 32" x="160" y="0">
  <title>Info2</title>
  <g id="BCG-largeIcons">
    <g id="Info2">
      <circle cx="16" cy="16" r="15" style="fill: #0084c5"/>
      <path d="M14.5,12.5v14h3v-14ZM16,6a2,2,0,1,1-2,2A2,2,0,0,1,16,6Z" style="fill: #fff"/>
    </g>
  </g>
</svg><svg xmlns="http://www.w3.org/2000/svg" width="32" height="32" viewBox="0 0 32 32" x="192" y="0">
  <title>About</title>
  <g id="BCG-largeIcons">
    <g id="About">
      <circle cx="16" cy="16" r="14" style="fill: #4d82b8"/>
      <path d="M14.78,22c0-.32,0-.3,0-.47a6.59,6.59,0,0,1,.41-2.47,5.58,5.58,0,0,1,1-1.58,17.25,17.25,0,0,1,1.78-1.7A8.28,8.28,0,0,0,19.61,14,2.78,2.78,0,0,0,20,12.55a3.35,3.35,0,0,0-1.12-2.49A3.87,3.87,0,0,0,16.1,9a3.77,3.77,0,0,0-2.64,1,5.06,5.06,0,0,0-1.39,3L9.52,13a7.05,7.05,0,0,1,2.05-4.5A6.57,6.57,0,0,1,16.06,7a6.79,6.79,0,0,1,4.72,1.59,5,5,0,0,1,1.76,3.82,4.82,4.82,0,0,1-.62,2.4,11.45,11.45,0,0,1-2.42,2.66A11.5,11.5,0,0,0,17.92,19a3.5,3.5,0,0,0-.55,1.15A7,7,0,0,0,17.16,22ZM17,25V23H15v2Z" style="fill: #fff"/>
    </g>
  </g>
</svg><svg xmlns="http://www.w3.org/2000/svg" width="32" height="32" viewBox="0 0 32 32" x="224" y="0">
  <title>Lamp_light</title>
  <g id="BCGSoft_GUIicons">
    <g id="Lamp-2" data-name="Lamp">
      <path d="M20,1.56a10.85,10.85,0,0,0-8.08,0,9.43,9.43,0,0,0-6.24,9c0,3.52,2.28,7.57,4.86,11.2,1.68,2.36-.47,7.13,3.65,6.61a14,14,0,0,1,3.54,0c4.12.52,2-4.25,3.65-6.61,2.58-3.63,4.86-7.68,4.86-11.2A9.43,9.43,0,0,0,20,1.56Z" style="fill: #fdd994;stroke: #d1b88f;stroke-miterlimit: 10;stroke-width: 1.2716499524440663px"/>
      <path d="M9.85,8h0l.55.9,1.29,3.88A77.48,77.48,0,0,1,15,27.13h0M22.15,8l-.55.9-1.29,3.88A77.48,77.48,0,0,0,17,27.13h0M9.85,8h0c1.61,4.77,3.61,5.42,5.34,1.73h0c.52-1.11,1.1-1.11,1.62,0h0c1.73,3.69,3.73,3,5.34-1.73h0" style="fill: none;stroke: #b89860;stroke-miterlimit: 10;stroke-width: 0.6666666865348816px"/>
      <path d="M20.87,29.2H11.13V27h9.74Zm0-4.65H11.13v2.21h9.74Zm-3.16,6.67,2.92-1.14c.47-.18.22-.57-.37-.57H11.74c-.59,0-.84.39-.37.57l2.92,1.14A5,5,0,0,0,17.71,31.22Z" style="fill: #b7b7b7;stroke: #999;stroke-miterlimit: 10;stroke-width: 0.9723762422013206px"/>
    </g>
  </g>
</svg></svg>