<?xml version="1.0" encoding="utf-8"?><svg width="63" height="63">
<!--This file was automatically generated by BCGSoft ribbon/toolbar designer-->
<svg xmlns="http://www.w3.org/2000/svg" width="9" height="9" viewBox="0 0 9 9" x="0" y="0">
  <title>menuimg_1</title>
  <g id="BCG-largeIcons">
    <g id="menuimg">
      <polygon points="2 3 4.5 6 7 3 2 3"/>
    </g>
  </g>
</svg><svg xmlns="http://www.w3.org/2000/svg" width="9" height="9" viewBox="0 0 9 9" x="9" y="0">
  <title>menuimg_2</title>
  <g id="BCG-largeIcons">
    <g id="menuimg">
      <polygon points="3 7 6 4.5 3 2 3 7"/>
    </g>
  </g>
</svg><svg xmlns="http://www.w3.org/2000/svg" width="9" height="9" viewBox="0 0 9 9" x="18" y="0">
  <title>menuimg_3</title>
  <g id="BCG-largeIcons">
    <g id="menuimg">
      <polyline points="8 2.25 3.5 6.75 1 4.25" style="fill: none;stroke: #000;stroke-miterlimit: 10;stroke-width: 1.55px"/>
    </g>
  </g>
</svg><svg xmlns="http://www.w3.org/2000/svg" width="9" height="9" viewBox="0 0 9 9" x="27" y="0">
  <title>menuimg_4</title>
  <g id="BCG-largeIcons">
    <g id="menuimg">
      <rect x="1" y="6" width="6" height="2"/>
    </g>
  </g>
</svg><svg xmlns="http://www.w3.org/2000/svg" width="9" height="9" viewBox="0 0 9 9" x="36" y="0">
  <title>menuimg_5</title>
  <g id="BCG-largeIcons">
    <g id="menuimg">
      <path d="M3,0V3H1V9H7V6H9V0ZM2,8V5H6V8ZM8,5H7V3H4V2H8Z"/>
    </g>
  </g>
</svg><svg xmlns="http://www.w3.org/2000/svg" width="9" height="9" viewBox="0 0 9 9" x="45" y="0">
  <title>menuimg_6</title>
  <g id="BCG-largeIcons">
    <g id="menuimg">
      <path d="M1,1l7,7m0-7-7,7" style="fill: none;stroke: #000;stroke-linecap: round;stroke-width: 1.55px"/>
    </g>
  </g>
</svg><svg xmlns="http://www.w3.org/2000/svg" width="9" height="9" viewBox="0 0 9 9" x="54" y="0">
  <title>menuimg_7</title>
  <g id="BCG-largeIcons">
    <g id="menuimg">
      <path d="M1,0H0V9H9V0ZM8,8H1V2H8Z"/>
    </g>
  </g>
</svg><svg xmlns="http://www.w3.org/2000/svg" width="9" height="9" viewBox="0 0 9 9" x="0" y="9">
  <title>menuimg_8</title>
  <g id="BCG-largeIcons">
    <g id="menuimg">
      <polygon points="7 6 4.5 3 2 6 7 6"/>
    </g>
  </g>
</svg><svg xmlns="http://www.w3.org/2000/svg" width="9" height="9" viewBox="0 0 9 9" x="9" y="9">
  <title>menuimg_9</title>
  <g id="BCG-largeIcons">
    <g id="menuimg">
      <path d="M7,4.89,4.5,8,2,4.89M2,1,4.5,4.11,7,1" style="fill: none;stroke: #000;stroke-miterlimit: 10"/>
    </g>
  </g>
</svg><svg xmlns="http://www.w3.org/2000/svg" width="9" height="9" viewBox="0 0 9 9" x="18" y="9">
  <title>menuimg_10</title>
  <g id="BCG-largeIcons">
    <g id="menuimg">
      <polygon points="6 2 3 4.5 6 7 6 2"/>
    </g>
  </g>
</svg><svg xmlns="http://www.w3.org/2000/svg" width="9" height="9" viewBox="0 0 9 9" x="27" y="9">
  <title>menuimg_11</title>
  <g id="BCG-largeIcons">
    <g id="menuimg">
      <path d="M2.25,2.25,4.5,4.5,6.75,6.75m0-4.5L4.5,4.5,2.25,6.75" style="fill: none;stroke: #000;stroke-linecap: square;stroke-miterlimit: 10"/>
    </g>
  </g>
</svg><svg xmlns="http://www.w3.org/2000/svg" width="9" height="9" viewBox="0 0 9 9" x="36" y="9">
  <title>menuimg_12</title>
  <g id="BCG-largeIcons">
    <g id="menuimg">
      <path d="M4.89,2,8,4.5,4.89,7M1,7,4.11,4.5,1,2" style="fill: none;stroke: #000;stroke-miterlimit: 10"/>
    </g>
  </g>
</svg><svg xmlns="http://www.w3.org/2000/svg" width="9" height="9" viewBox="0 0 9 9" x="45" y="9">
  <title>menuimg_13</title>
  <g id="BCG-largeIcons">
    <g id="menuimg">
      <circle cx="4.5" cy="4.5" r="2.5"/>
    </g>
  </g>
</svg><svg xmlns="http://www.w3.org/2000/svg" width="9" height="9" viewBox="0 0 9 9" x="54" y="9">
  <title>menuimg_14</title>
  <g id="BCG-largeIcons">
    <g id="menuimg">
      <polygon points="0 3 4.5 8 9 3 0 3"/>
    </g>
  </g>
</svg><svg xmlns="http://www.w3.org/2000/svg" width="9" height="9" viewBox="0 0 9 9" x="0" y="18">
  <title>menuimg_15</title>
  <g id="BCG-largeIcons">
    <g id="menuimg">
      <polygon points="3 8 7 4.5 3 1 3 8"/>
    </g>
  </g>
</svg><svg xmlns="http://www.w3.org/2000/svg" width="9" height="9" viewBox="0 0 9 9" x="9" y="18">
  <title>menuimg_16</title>
  <g id="BCG-largeIcons">
    <g id="menuimg">
      <path d="M5,2V1H4V4H1V5H4V8H5V7H9V2ZM8,5H5V3H8Z"/>
    </g>
  </g>
</svg><svg xmlns="http://www.w3.org/2000/svg" width="9" height="9" viewBox="0 0 9 9" x="18" y="18">
  <title>menuimg_17</title>
  <g id="BCG-largeIcons">
    <g id="menuimg">
      <path d="M7,5V0H2V5H1V6H4V9H5V6H8V5ZM5,5H3V1H5Z"/>
    </g>
  </g>
</svg><svg xmlns="http://www.w3.org/2000/svg" width="9" height="9" viewBox="0 0 9 9" x="27" y="18">
  <title>menuimg_18</title>
  <g id="BCG-largeIcons">
    <g id="menuimg">
      <polygon points="6 1 2 4.5 6 8 6 1"/>
    </g>
  </g>
</svg><svg xmlns="http://www.w3.org/2000/svg" width="9" height="9" viewBox="0 0 9 9" x="36" y="18">
  <title>menuimg_19</title>
  <g id="BCG-largeIcons">
    <g id="menuimg">
      <path d="M7,8,3,4.5,7,1ZM2,1H1V8H2Z"/>
    </g>
  </g>
</svg><svg xmlns="http://www.w3.org/2000/svg" width="9" height="9" viewBox="0 0 9 9" x="45" y="18">
  <title>menuimg_20</title>
  <g id="BCG-largeIcons">
    <g id="menuimg">
      <path d="M8,1H7V8H8ZM1,1,5,4.5,1,8Z"/>
    </g>
  </g>
</svg><svg xmlns="http://www.w3.org/2000/svg" width="9" height="9" viewBox="0 0 9 9" x="54" y="18">
  <title>menuimg_21</title>
  <g id="BCG-largeIcons">
    <g id="menuimg">
      <polygon points="2 9 7 4.5 2 0 2 9"/>
    </g>
  </g>
</svg><svg xmlns="http://www.w3.org/2000/svg" width="9" height="9" viewBox="0 0 9 9" x="0" y="27">
  <title>menuimg_22</title>
  <g id="BCG-largeIcons">
    <g id="menuimg">
      <polygon points="7 0 2 4.5 7 9 7 0"/>
    </g>
  </g>
</svg><svg xmlns="http://www.w3.org/2000/svg" width="9" height="9" viewBox="0 0 9 9" x="9" y="27">
  <title>menuimg_24</title>
  <g id="BCG-largeIcons">
    <g id="menuimg">
      <path d="M3,2.25,5.51,4.5,3,6.75V2.25M2,0V9L7,4.5,2,0Z"/>
    </g>
  </g>
</svg><svg xmlns="http://www.w3.org/2000/svg" width="9" height="9" viewBox="0 0 9 9" x="18" y="27">
  <title>menuimg_23</title>
  <g id="BCG-largeIcons">
    <g id="menuimg">
      <path d="M6,2.25v4.5L3.49,4.5,6,2.25M7,0,2,4.5,7,9V0Z"/>
    </g>
  </g>
</svg><svg xmlns="http://www.w3.org/2000/svg" width="9" height="9" viewBox="0 0 9 9" x="27" y="27">
  <title>menuimg_25</title>
  <g id="BCG-largeIcons">
    <g id="menuimg">
      <polygon points="9 7 4.5 2 0 7 9 7"/>
    </g>
  </g>
</svg><svg xmlns="http://www.w3.org/2000/svg" width="9" height="9" viewBox="0 0 9 9" x="36" y="27">
  <title>menuimg_26</title>
  <g id="BCG-largeIcons">
    <g id="menuimg">
      <path d="M5,7,2,4.5,5,2ZM7,2H6V7H7Z"/>
    </g>
  </g>
</svg><svg xmlns="http://www.w3.org/2000/svg" width="9" height="9" viewBox="0 0 9 9" x="45" y="27">
  <title>menuimg_27</title>
  <g id="BCG-largeIcons">
    <g id="menuimg">
      <path d="M4,2,7,4.5,4,7ZM2,7H3V2H2Z"/>
    </g>
  </g>
</svg><svg xmlns="http://www.w3.org/2000/svg" width="9" height="9" viewBox="0 0 9 9" x="54" y="27">
  <title>menuimg_28</title>
  <g id="BCG-largeIcons">
    <g id="menuimg">
      <polygon points="5 2 5 0 0 4.5 5 9 5 7 8 7 8 2 5 2"/>
    </g>
  </g>
</svg><svg xmlns="http://www.w3.org/2000/svg" width="9" height="9" viewBox="0 0 9 9" x="0" y="36">
  <title>menuimg_29</title>
  <g id="BCG-largeIcons">
    <g id="menuimg">
      <polygon points="4 7 4 9 9 4.5 4 0 4 2 1 2 1 7 4 7"/>
    </g>
  </g>
</svg><svg xmlns="http://www.w3.org/2000/svg" width="9" height="9" viewBox="0 0 9 9" x="9" y="36">
  <title>menuimg_30</title>
  <g id="BCG-largeIcons">
    <g id="menuimg">
      <path d="M7,5,4.5,8,2,5ZM2,2V3H7V2Z"/>
    </g>
  </g>
</svg><svg xmlns="http://www.w3.org/2000/svg" width="9" height="9" viewBox="0 0 9 9" x="18" y="36">
  <title>menuimg_31</title>
  <g id="BCG-largeIcons">
    <g id="menuimg">
      <path d="M5,2,8,4.5,5,7ZM2,7H3V2H2Z"/>
    </g>
  </g>
</svg><svg xmlns="http://www.w3.org/2000/svg" width="9" height="9" viewBox="0 0 9 9" x="27" y="36">
  <title>menuimg_32</title>
  <g id="BCG-largeIcons">
    <g id="menuimg">
      <path d="M4,4.5,2,6V3ZM5,3V6L7,4.5Z"/>
    </g>
  </g>
</svg><svg xmlns="http://www.w3.org/2000/svg" width="9" height="9" viewBox="0 0 9 9" x="36" y="36">
  <title>menuimg_33</title>
  <g id="BCG-largeIcons">
    <g id="menuimg">
      <path d="M4.5,5,3,3H6ZM6,6H3L4.5,8Z"/>
    </g>
  </g>
</svg><svg xmlns="http://www.w3.org/2000/svg" width="9" height="9" viewBox="0 0 9 9" x="45" y="36">
  <title>menuimg_34</title>
  <g id="BCG-largeIcons">
    <g id="menuimg">
      <path d="M1,1V3H8V1ZM8,4,4.5,8,1,4Z"/>
    </g>
  </g>
</svg><svg xmlns="http://www.w3.org/2000/svg" width="9" height="9" viewBox="0 0 9 9" x="54" y="36">
  <title>menuimg_35</title>
  <g id="BCG-largeIcons">
    <g id="menuimg">
      <path d="M1,1,4.5,4.5,8,8M8,1,4.5,4.5,1,8" style="fill: none;stroke: #000;stroke-miterlimit: 10;stroke-width: 1.75px"/>
    </g>
  </g>
</svg><svg xmlns="http://www.w3.org/2000/svg" width="9" height="9" viewBox="0 0 9 9" x="0" y="45">
  <title>menuimg_36</title>
  <g id="BCG-largeIcons">
    <g id="menuimg">
      <path d="M8,4V8H4L5,7H6L3.5,4.5l1-1L7,6V5ZM7,1H1V7H2V2H7Z"/>
    </g>
  </g>
</svg><svg xmlns="http://www.w3.org/2000/svg" width="9" height="9" viewBox="0 0 9 9" x="9" y="45">
  <title>menuimg_37</title>
  <g id="BCG-largeIcons">
    <g id="menuimg">
      <polyline points="7.5 7 4.5 3.5 1.5 7" style="fill: none;stroke: #000;stroke-miterlimit: 10;stroke-width: 2px"/>
    </g>
  </g>
</svg><svg xmlns="http://www.w3.org/2000/svg" width="9" height="9" viewBox="0 0 9 9" x="18" y="45">
  <title>menuimg_38</title>
  <g id="BCG-largeIcons">
    <g id="menuimg">
      <polyline points="1.5 2 4.5 5.5 7.5 2" style="fill: none;stroke: #000;stroke-miterlimit: 10;stroke-width: 2px"/>
    </g>
  </g>
</svg><svg xmlns="http://www.w3.org/2000/svg" width="9" height="9" viewBox="0 0 9 9" x="27" y="45">
  <title>menuimg_39</title>
  <g id="BCG-largeIcons">
    <g id="menuimg">
      <polygon points="9 3 2.85 3 4.57 0.99 3.43 0.01 0.01 4 3.43 7.99 4.57 7.01 2.85 5 9 5 9 3"/>
    </g>
  </g>
</svg><svg xmlns="http://www.w3.org/2000/svg" width="9" height="9" viewBox="0 0 9 9" x="36" y="45">
  <title>menuimg_40</title>
  <g id="BCG-largeIcons">
    <g id="menuimg">
      <polygon points="5.57 0.01 4.43 0.99 6.16 3 0 3 0 5 6.16 5 4.43 7.01 5.57 7.99 8.99 4 5.57 0.01"/>
    </g>
  </g>
</svg><svg xmlns="http://www.w3.org/2000/svg" width="9" height="9" viewBox="0 0 9 9" x="45" y="45">
  <title>menuimg_41</title>
  <g id="BCG-largeIcons">
    <g id="menuimg">
      <polygon points="7.99 3.43 4 0.01 0.01 3.43 0.99 4.57 3 2.85 3 9 5 9 5 2.85 7.01 4.57 7.99 3.43"/>
    </g>
  </g>
</svg><svg xmlns="http://www.w3.org/2000/svg" width="9" height="9" viewBox="0 0 9 9" x="54" y="45">
  <title>menuimg_42</title>
  <g id="BCG-largeIcons">
    <g id="menuimg">
      <path d="M9,2H0V0H9ZM9,3H0V5H9ZM9,6H0V8H9Z"/>
    </g>
  </g>
</svg><svg xmlns="http://www.w3.org/2000/svg" width="9" height="9" viewBox="0 0 9 9" x="0" y="54">
  <title>menuimg_43</title>
  <g id="BCG-largeIcons">
    <g id="menuimg">
      <circle cx="1.25" cy="4.5" r="1.25"/>
      <circle cx="4.5" cy="4.5" r="1.25"/>
      <circle cx="7.75" cy="4.5" r="1.25"/>
    </g>
  </g>
</svg><svg xmlns="http://www.w3.org/2000/svg" width="9" height="9" viewBox="0 0 9 9" x="9" y="54">
  <title>menuimg_44</title>
  <g id="BCG-largeIcons">
    <g id="menuimg">
      <path d="M0,5H9V6H8V9H5V7H4V9H1V6H0ZM9,5,4.5,0,0,5Z"/>
    </g>
  </g>
</svg><svg xmlns="http://www.w3.org/2000/svg" width="9" height="9" viewBox="0 0 9 9" x="18" y="54">
  <title>Help</title>
  <g id="BCGSoft_GUIicons">
    <path d="M5.22,6.72H3.67V6.31a2.63,2.63,0,0,1,.25-1.24,3.63,3.63,0,0,1,1-1.1,7.79,7.79,0,0,0,.9-.8A1.07,1.07,0,0,0,6,2.51a1.12,1.12,0,0,0-.39-.85A1.57,1.57,0,0,0,4.56,1.3a1.67,1.67,0,0,0-1.09.37,2.33,2.33,0,0,0-.6,1.24H1.3A3.25,3.25,0,0,1,2.23.76,3.25,3.25,0,0,1,4.49,0,3.42,3.42,0,0,1,6.83.77,2.32,2.32,0,0,1,7.7,2.56a1.94,1.94,0,0,1-.32,1.08A7.28,7.28,0,0,1,6,5a2.62,2.62,0,0,0-.68.73A2.73,2.73,0,0,0,5.22,6.72ZM3.7,9V7.48H5.22V9Z"/>
  </g>
</svg></svg>