<?xml version="1.0" encoding="utf-8"?><svg width="48" height="64">
<!--This file was automatically generated by BCGSoft ribbon/toolbar designer-->
<svg xmlns="http://www.w3.org/2000/svg" width="16" height="15" viewBox="0 0 16 15" x="0" y="0">
  <title>pen</title>
  <g id="BCG-largeIcons">
    <path id="Pen" d="M12.51,5.46,4.72,13.23,2.25,10.77,10,3ZM12.16.87,10.39,2.64,12.86,5.1l1.77-1.77ZM1.37,14.13l3-.54L1.92,11.14Z" style="fill: #4a7db1"/>
  </g>
</svg><svg xmlns="http://www.w3.org/2000/svg" width="16" height="15" viewBox="0 0 16 15" x="16" y="0">
  <title>palette-pro_2</title>
  <g id="BCG-largeIcons">
    <g id="PaintBucket">
      <path d="M11.5,8.76h-5C6.5,6.88,9,5,10.75,5,13,5,15,6.24,15,8s-2,4-3.5,5C11.08,13.28,13,9.76,11.5,8.76Z" style="fill: #4a7db1"/>
      <g>
        <rect x="3" y="4.51" width="8" height="7" transform="translate(-3.61 7.3) rotate(-45)" style="fill: #fff"/>
        <path d="M7.35,3.41,11.6,7.66,6.65,12.61,2.4,8.36,7.35,3.41M7.35,2,1,8.36,6.65,14,13,7.66,7.35,2Z" style="fill: gray"/>
      </g>
      <path d="M6,0A2.07,2.07,0,0,0,4,2V5.5H5V2A1,1,0,0,1,7,2V7H8V2A2.07,2.07,0,0,0,6,0Z" style="fill: gray"/>
    </g>
  </g>
</svg><svg xmlns="http://www.w3.org/2000/svg" width="16" height="15" viewBox="0 0 16 15" x="32" y="0">
  <title>palette-pro_3</title>
  <g id="BCG-largeIcons">
    <g id="ColorPicker">
      <path d="M15.89,2.17,15.36,1.1A1,1,0,0,0,14.9.64L13.83.11A1,1,0,0,0,12.66.3l-3,3L9.14,2.8A.75.75,0,1,0,8.08,3.86l.51.51L2.31,10.64l-.3.3a1,1,0,0,0-.29.72V13a.75.75,0,0,1-.21.51l-.3.3a.71.71,0,1,0,1,1l.3-.3A.75.75,0,0,1,3,14.28H4.34A1,1,0,0,0,5.06,14l6.57-6.58.51.51a.75.75,0,0,0,1.06,0,.75.75,0,0,0,0-1.06l-.53-.53,3-3A1,1,0,0,0,15.89,2.17ZM4,13.65a3.56,3.56,0,0,1-1.13,0c-.33,0-.48.28-.72.51l-.29.3a.21.21,0,1,1-.3-.3l.3-.29A1.45,1.45,0,0,0,2.36,13a3.38,3.38,0,0,1,0-1c0-.12,6.83-6.83,6.83-6.83l1.66,1.66S4.13,13.6,4,13.65Z" style="fill: #727272"/>
    </g>
  </g>
</svg><svg xmlns="http://www.w3.org/2000/svg" width="16" height="15" viewBox="0 0 16 15" x="0" y="15">
  <title>palette-pro_4</title>
  <g id="BCG-largeIcons">
    <line id="Line" x1="15" y1="1" x2="1" y2="14" style="fill: none;stroke: #507090;stroke-miterlimit: 10"/>
  </g>
</svg><svg xmlns="http://www.w3.org/2000/svg" width="16" height="15" viewBox="0 0 16 15" x="16" y="15">
  <title>palette-pro_5</title>
  <g id="BCG-largeIcons">
    <path d="M15,2V14H1V2H15m1-1H0V15H16V1Z" style="fill: #507090"/>
  </g>
</svg><svg xmlns="http://www.w3.org/2000/svg" xmlns:xlink="http://www.w3.org/1999/xlink" width="16" height="15" viewBox="0 0 16 15" x="32" y="15">
  <defs>
    <linearGradient id="linear-gradient" x1="3.22" y1="2.72" x2="12.78" y2="12.28" gradientUnits="userSpaceOnUse">
      <stop offset="0" stop-color="#466489"/>
      <stop offset="1" stop-color="#2c4563"/>
    </linearGradient>
  </defs>
  <title>palette-pro_6</title>
  <g id="BCG-largeIcons">
    <path d="M8,1.72A6.05,6.05,0,0,1,14.28,7.5,6.05,6.05,0,0,1,8,13.28,6.05,6.05,0,0,1,1.72,7.5,6.05,6.05,0,0,1,8,1.72M8,1A6.76,6.76,0,0,0,1,7.5,6.76,6.76,0,0,0,8,14a6.76,6.76,0,0,0,7-6.5A6.76,6.76,0,0,0,8,1Z" style="fill: url(#linear-gradient)"/>
  </g>
</svg><svg xmlns="http://www.w3.org/2000/svg" width="16" height="16" viewBox="0 0 16 16" x="0" y="30">
  <title>Copy_1</title>
  <g id="BCG-largeIcons">
    <g id="Copy">
      <path d="M6.5,11H1V2H6l.5,1ZM14,15V7L12,5H6V15Z" style="fill: #fff"/>
      <path d="M5,12H0V1H6L8,3H6.5l-1-1H1v9H5ZM15,7v8H6V4h6ZM12,7h1.6L12,5.5Zm2,7V8H11V5H7v9Z" style="fill: #727272"/>
      <path d="M4,5H2V4H4Zm6,2H8V8h2Zm3,2H8v1h5Zm0,2H8v1h5ZM5,6H2V7H5ZM5,8H2V9H5Z" style="fill: #4a7db1"/>
    </g>
  </g>
</svg><svg xmlns="http://www.w3.org/2000/svg" width="16" height="16" viewBox="0 0 16 16" x="16" y="30">
  <title>Paste_1</title>
  <g id="BCG-largeIcons">
    <g id="Paste">
      <path d="M14,6V3a1,1,0,0,0-1-1H12V4a.94.94,0,0,1-1,1H4A.94.94,0,0,1,3,4V2H2A1,1,0,0,0,1,3V14.07a.91.91,0,0,0,.93.93H7V6Z" style="fill: #eac282"/>
      <polygon points="12.49 7.5 8.5 7.5 8.5 15.5 15.5 15.5 15.5 10.5 12.49 7.5" style="fill: #fff"/>
      <path d="M10,2H9V.5C9,0,9,0,8.5,0h-2C6,0,6,0,6,.5V2H5A1,1,0,0,0,4,3V4h7V3A1,1,0,0,0,10,2ZM8,2H7V1H8Z" style="fill: #727272"/>
      <path d="M13,7H8v9h8V10Zm0,1.5L14.5,10H13ZM15,15H9V8h3v3h3Z" style="fill: #727272"/>
    </g>
  </g>
</svg><svg xmlns="http://www.w3.org/2000/svg" width="16" height="15" viewBox="0 0 16 15" x="32" y="30">
  <title>palette-pro_7</title>
  <g id="BCG-largeIcons">
    <path id="Delete" d="M9.73,5.91A48.83,48.83,0,0,1,15,1.26,34.2,34.2,0,0,0,8.57,4.51C6.6,2.2,4.55.36,3.07.33,1.83.31.94,1.65,2,2.44c1.42,1,2.87,2.15,4.48,3.48A23.34,23.34,0,0,0,.81,11.21c-.77,1.38.9,3.18,2.05,1.89S6.12,9.53,8.25,7.38C10.16,9,12.35,11,15,13.54A86.94,86.94,0,0,0,9.73,5.91Z" style="fill: #9e0b0f"/>
  </g>
</svg></svg>