<?xml version="1.0" encoding="utf-8"?><svg width="128" height="64">
<!--This file was automatically generated by BCGSoft ribbon/toolbar designer-->
<svg xmlns="http://www.w3.org/2000/svg" width="32" height="32" viewBox="0 0 32 32" x="0" y="0">
  <title>Print_Page_1</title>
  <g id="BCG-largeIcons">
    <g id="Print_Page_1">
      <path d="M28,29H10V6H21l7,7ZM9,5H8V28H9ZM6,3H5V26H6Z" style="fill: #fff"/>
      <path d="M19,14H13V13h6Zm6,2H13v1H25Zm0,3H13v1H25Zm0,3H13v1H25Zm0,3H13v1H25ZM19,10H13v1h6Z" style="fill: #b3b3b3"/>
      <path d="M22,6H10V30H28V12Zm0,1.5L26.5,12H22ZM11,29V7H21v6h6V29ZM20,4V5H8V28H7V4H20ZM5,2H4V26H5V3H18V2Z" style="fill: gray"/>
    </g>
  </g>
</svg><svg xmlns="http://www.w3.org/2000/svg" width="32" height="32" viewBox="0 0 32 32" x="32" y="0">
  <title>Print_Page_2</title>
  <g id="BCG-largeIcons">
    <g id="Print_Page_2">
      <polygon points="25 9 19 3 6 3 6 29 25 29 25 9" style="fill: #fff"/>
      <path d="M19,2H5V30H26V9Zm0,1.5L24.5,9H19ZM6,29V3H18v7h7V29Z" style="fill: gray"/>
      <polygon points="23 22 21 22 21 20 19 20 19 22 17 22 17 24 19 24 19 26 21 26 21 24 23 24 23 22" style="fill: #4d82b8"/>
      <path d="M21,13H19v1h1v1h1V13Zm-3,0H16v1h2V13Zm-3,0H13v1h2V13Zm-3,0H10v2h1V14h1V13Zm9,3H20v2h1V16ZM11,16H10v2h1V16Zm0,3H10v2h1V19Zm0,3H10v2h2V23H11V22Zm4,1H13v1h2V23Z" style="fill: #b3b3b3"/>
    </g>
  </g>
</svg><svg xmlns="http://www.w3.org/2000/svg" width="32" height="32" viewBox="0 0 32 32" x="64" y="0">
  <title>Print_Page_3</title>
  <g id="BCG-largeIcons">
    <g id="Print_Page_3">
      <polygon points="25 9 19 3 6 3 6 29 25 29 25 9" style="fill: #fff"/>
      <path d="M19,2H5V30H26V9Zm0,1.5L24.5,9H19ZM6,29V3H18v7h7V29Z" style="fill: gray"/>
      <path d="M16,9H8V8h8Zm0,2H8v1h8Zm7,3H8v1H23Zm0,3H8v1H23Zm0,3H8v1H23Zm0,3H8v1H23Z" style="fill: #b3b3b3"/>
    </g>
  </g>
</svg><svg xmlns="http://www.w3.org/2000/svg" width="32" height="32" viewBox="0 0 32 32" x="96" y="0">
  <title>Print_Page_4</title>
  <g id="BCG-largeIcons">
    <g id="Print_Page_4">
      <path d="M8,10H0V26H12V14Z" style="fill: #fff"/>
      <path d="M13,13.59,8.41,9H4V5h8l4,4v3H13ZM13,16v5h3V16Zm-1-2V26H0V10H8ZM28,5H20V9h2.41l5,5-5,5H20v2H32V9Z" style="fill: #fff"/>
      <path d="M8,10H0V26H12V14Zm0,1.5L10.5,14H8ZM1,25V11H7v4h4V25ZM28,5H20V9h1V6h6v4h4V20H21V19H20v2H32V9Zm0,4V6.5L30.5,9ZM15,10v2h1V9L12,5H4V9H5V6h6v4ZM12,6.5,14.5,9H12ZM16,16v5H13V20h2V16Z" style="fill: gray"/>
      <path d="M26,14l-4-4H18.41l2.76,3H14v2h7.17L18.5,18H22Z" style="fill: #4d82b8"/>
    </g>
  </g>
</svg></svg>