<?xml version="1.0" encoding="utf-8"?><svg width="64" height="64">
<!--This file was automatically generated by BCGSoft ribbon/toolbar designer-->
<svg xmlns="http://www.w3.org/2000/svg" width="32" height="32" viewBox="0 0 32 32" x="0" y="0">
  <title>Print_Collate_1</title>
  <g id="BCG-largeIcons">
    <g id="Print_Collate_1">
      <g>
        <rect x="4.5" y="10.5" width="11" height="15" style="fill: #fff"/>
        <path d="M15,11V25H5V11H15m1-1H4V26H16V10Z" style="fill: #727272"/>
      </g>
      <g>
        <rect x="20.5" y="10.5" width="11" height="15" style="fill: #fff"/>
        <path d="M31,11V25H21V11H31m1-1H20V26H32V10Z" style="fill: gray"/>
      </g>
      <path d="M14,14H6V12h8Zm-2,2H6v1h6Zm2,3H6v1h8Zm0,3H6v1h8Zm16-8H22V12h8Zm-2,2H22v1h6Zm2,3H22v1h8Zm0,3H22v1h8Z" style="fill: #b3b3b3"/>
      <path d="M4,24H3V9H14v1H4ZM2,8H12V7H1V22H2Zm18,2H30V9H19V24h1ZM18,8H28V7H17V9h1Z" style="fill: #fff"/>
      <path d="M1,22H0V6H12V7H1ZM3,9H14V8H2V24H3ZM17,7H28V6H16V9h1Zm2,2H30V8H18V24h1Z" style="fill: gray"/>
    </g>
  </g>
</svg><svg xmlns="http://www.w3.org/2000/svg" width="32" height="32" viewBox="0 0 32 32" x="32" y="0">
  <title>Print_Collate_2</title>
  <g id="BCG-largeIcons">
    <g id="Print_Collate_2">
      <path d="M20,18V4H30V18Zm-1-5H17V2H29V3H19ZM4,18V4H14V18ZM3,17H2V2H13V3H3Z" style="fill: #fff"/>
      <path d="M30,4V18H20V4H30m1-1H19V19H31V3ZM14,4V18H4V4H14m1-1H3V19H15V3Zm3-1H29V1H17V12h1Zm5,14V30H13V16H23m1-1H12V31H24V15ZM11,14H22V13H10V29h1ZM2,2H13V1H1V17H2Z" style="fill: gray"/>
      <path d="M13,30V16H23V30Zm-1-1H11V14H22v1H12Z" style="fill: #fff"/>
      <path d="M22,19H14V17h8Zm-2,2H14v1h6Zm2,3H14v1h8Zm0,3H14v1h8ZM29,6H21V7h8ZM8,6H5V7H8ZM8,9H5v1H8Zm1,3H5v1H9Zm0,3H5v1H9Zm4-9H9V7h4Zm0,3H9v1h4ZM9,7V9h1V7Zm3,0V9h1V7ZM29,9H21v1h8Zm0,3H23v1h6Zm0,3H25v1h4Z" style="fill: #b3b3b3"/>
    </g>
  </g>
</svg></svg>