<?xml version="1.0" encoding="utf-8"?><svg width="256" height="64">
<!--This file was automatically generated by BCGSoft ribbon/toolbar designer-->
<svg xmlns="http://www.w3.org/2000/svg" width="32" height="32" viewBox="0 0 32 32" x="0" y="0">
  <title>Empty</title>
  <g id="BCG-largeIcons">
  </g>
</svg><svg xmlns="http://www.w3.org/2000/svg" width="32" height="32" viewBox="0 0 32 32" x="16" y="0">
  <title>Print_Paper_1</title>
  <g id="BCG-largeIcons">
    <g>
      <rect x="7.5" y="5.5" width="17" height="22" style="fill: #fff"/>
      <path d="M24,6V27H8V6H24m1-1H7V28H25V5Z" style="fill: gray"/>
    </g>
  </g>
</svg><svg xmlns="http://www.w3.org/2000/svg" width="32" height="32" viewBox="0 0 32 32" x="48" y="0">
  <title>Print_Paper_2</title>
  <g id="BCG-largeIcons">
    <g>
      <rect x="5.5" y="1.5" width="20" height="29" style="fill: #fff"/>
      <path d="M25,2V30H6V2H25m1-1H5V31H26V1Z" style="fill: gray"/>
    </g>
  </g>
</svg><svg xmlns="http://www.w3.org/2000/svg" width="32" height="32" viewBox="0 0 32 32" x="80" y="0">
  <title>Print_Paper_3</title>
  <g id="BCG-largeIcons">
    <g>
      <rect x="8.5" y="3.5" width="16" height="25" style="fill: #fff"/>
      <path d="M24,4V28H9V4H24m1-1H8V29H25V3Z" style="fill: gray"/>
    </g>
  </g>
</svg><svg xmlns="http://www.w3.org/2000/svg" width="32" height="32" viewBox="0 0 32 32" x="112" y="0">
  <title>Print_Paper_4</title>
  <g id="BCG-largeIcons">
    <g>
      <rect x="8.5" y="4.5" width="15" height="22" style="fill: #fff"/>
      <path d="M23,5V26H9V5H23m1-1H8V27H24V4Z" style="fill: gray"/>
    </g>
  </g>
</svg><svg xmlns="http://www.w3.org/2000/svg" width="32" height="32" viewBox="0 0 32 32" x="144" y="0">
  <title>Print_Paper_5</title>
  <g id="BCG-largeIcons">
    <g>
      <rect x="5.5" y="1.5" width="20" height="29" style="fill: #fff"/>
      <path d="M25,2V30H6V2H25m1-1H5V31H26V1Z" style="fill: gray"/>
    </g>
  </g>
</svg><svg xmlns="http://www.w3.org/2000/svg" width="32" height="32" viewBox="0 0 32 32" x="176" y="0">
  <title>Print_Paper_6</title>
  <g id="BCG-largeIcons">
    <g>
      <rect x="7.5" y="4.5" width="16" height="23" style="fill: #fff"/>
      <path d="M23,5V27H8V5H23m1-1H7V28H24V4Z" style="fill: gray"/>
    </g>
  </g>
</svg><svg xmlns="http://www.w3.org/2000/svg" width="32" height="32" viewBox="0 0 32 32" x="208" y="0">
  <title>Print_Paper_7</title>
  <g id="BCG-largeIcons">
    <g>
      <rect x="9.5" y="7.5" width="13" height="17" style="fill: #fff"/>
      <path d="M22,8V24H10V8H22m1-1H9V25H23V7Z" style="fill: gray"/>
    </g>
  </g>
</svg></svg>