<?xml version="1.0" encoding="utf-8"?><svg width="64" height="64">
<!--This file was automatically generated by BCGSoft ribbon/toolbar designer-->
<svg xmlns="http://www.w3.org/2000/svg" width="32" height="32" viewBox="0 0 32 32" x="0" y="0">
  <title>Print_Orientation_1</title>
  <g id="BCG-largeIcons">
    <g id="Print_Orientation_1">
      <polygon points="25 9 19 3 6 3 6 29 25 29 25 9" style="fill: #fff"/>
      <path d="M19,2H5V30H26V9Zm0,1.5L24.5,9H19ZM6,29V3H18v7h7V29Z" style="fill: gray"/>
      <path d="M16,10H8V9h8Zm7,2H8v1H23Zm0,3H8v1H23Zm0,3H8v1H23Zm0,3H8v1H23Zm0,3H8v1H23ZM16,6H8V7h8Z" style="fill: #b3b3b3"/>
    </g>
  </g>
</svg><svg xmlns="http://www.w3.org/2000/svg" width="32" height="32" viewBox="0 0 32 32" x="32" y="0">
  <title>Print_Orientation_2</title>
  <g id="BCG-largeIcons">
    <g id="Print_Orientation_2">
      <polygon points="2 27 2 6 23 6 30 13 30 27 2 27" style="fill: #fff"/>
      <path d="M20,11H5V10H20Zm0,2H5v1H20Zm7,3H5v1H27Zm0,3H5v1H27Zm0,3H5v1H27Z" style="fill: #b3b3b3"/>
      <path d="M23,6H2V27H30V13Zm0,1.5L28.5,13H23ZM29,26H3V7H22v7h7Z" style="fill: gray"/>
    </g>
  </g>
</svg></svg>