<?xml version="1.0" encoding="utf-8"?><svg width="44" height="22">
<!--This file was automatically generated by BCGSoft ribbon/toolbar designer-->
<svg xmlns="http://www.w3.org/2000/svg" width="11" height="11" viewBox="0 0 11 11" x="0" y="0">
  <title>proplistadvanced_1</title>
  <g id="BCG-largeIcons">
    <g id="proplistadvanced_1">
      <g>
        <path d="M8.22,9.5,9.5,8.22V9.5ZM1.5,9.5v-8h8V5.39L5.39,9.5Z" style="fill: #f1f1f1"/>
        <path d="M9,2V5.19L5.19,9H2V2H9m1-1H1v9H5.6L10,5.6V1Zm0,6L7,10h3V7Z" style="fill: #5f5f5f"/>
      </g>
      <polygon points="10 5.6 5.6 10 7.02 10 10 7.02 10 5.6" style="fill: #ddd"/>
    </g>
  </g>
</svg><svg xmlns="http://www.w3.org/2000/svg" width="11" height="11" viewBox="0 0 11 11" x="11" y="0">
  <title>proplistadvanced_2</title>
  <g id="BCG-largeIcons">
    <g id="proplistadvanced_2">
      <g>
        <path d="M8.22,9.5,9.5,8.22V9.5ZM1.5,9.5v-8h8V5.39L5.39,9.5Z" style="fill: #b2b2b2"/>
        <path d="M9,2V5.19L5.19,9H2V2H9m1-1H1v9H5.6L10,5.6V1Zm0,6L7,10h3V7Z" style="fill: #5f5f5f"/>
      </g>
      <polygon points="10 5.6 5.6 10 7.02 10 10 7.02 10 5.6" style="fill: #ddd"/>
    </g>
  </g>
</svg><svg xmlns="http://www.w3.org/2000/svg" width="11" height="11" viewBox="0 0 11 11" x="22" y="0">
  <title>proplistadvanced_3</title>
  <g id="BCG-largeIcons">
    <g id="proplistadvanced_3">
      <g>
        <rect x="2.11" y="2.11" width="6.78" height="6.78" transform="translate(-2.28 5.5) rotate(-45)" style="fill: #ddd"/>
        <path d="M5.5,1.41,9.59,5.5,5.5,9.59,1.41,5.5,5.5,1.41M5.5,0,0,5.5,5.5,11,11,5.5,5.5,0Z" style="fill: #5f5f5f"/>
      </g>
      <rect x="3.56" y="3.56" width="3.89" height="3.89" transform="translate(-2.28 5.5) rotate(-45)"/>
    </g>
  </g>
</svg><svg xmlns="http://www.w3.org/2000/svg" width="11" height="11" viewBox="0 0 11 11" x="33" y="0">
  <title>proplistadvanced_4</title>
  <g id="BCG-largeIcons">
    <g id="proplistadvanced_4">
      <g>
        <rect x="2.11" y="2.11" width="6.78" height="6.78" transform="translate(-2.28 5.5) rotate(-45)" style="fill: #ddd"/>
        <path d="M5.5,1.41,9.59,5.5,5.5,9.59,1.41,5.5,5.5,1.41M5.5,0,0,5.5,5.5,11,11,5.5,5.5,0Z" style="fill: #5f5f5f"/>
      </g>
      <rect x="3.56" y="3.56" width="3.89" height="3.89" transform="translate(-2.28 5.5) rotate(-45)" style="fill: #868686"/>
    </g>
  </g>
</svg></svg>