<?xml version="1.0" encoding="utf-8"?><svg width="32" height="32">
<!--This file was automatically generated by BCGSoft ribbon/toolbar designer-->
<svg xmlns="http://www.w3.org/2000/svg" width="16" height="16" viewBox="0 0 16 16" x="0" y="0">
  <title>proplist_sort_categorized</title>
  <g id="BCG-largeIcons">
    <path id="sort_categorized" d="M12,2H7V1h5Zm0,1H7V4h5Zm0,2H7V6h5Zm0,2H7V8h5Zm0,2H7v1h5Zm0,3H7v1h5Zm0,2H7v1h5Zm3,0H13v1h2Zm0-5H13v1h2Zm0-2H13V8h2Zm0-2H13V6h2Zm0-2H13V4h2ZM6,1V6H1V1ZM5,3H4V2H3V3H2V4H3V5H4V4H5Zm1,7v5H1V10ZM5,12H4V11H3v1H2v1H3v1H4V13H5Z" style="fill: #727272"/>
  </g>
</svg><svg xmlns="http://www.w3.org/2000/svg" width="16" height="16" viewBox="0 0 16 16" x="16" y="0">
  <title>proplist_sort_alphabetical</title>
  <g id="BCG-largeIcons">
    <g id="sort_alphabetical">
      <polygon points="14.59 10.72 13 12.83 13 0 12 0 12 12.83 10.41 10.72 9.59 11.28 12.5 15 15.41 11.28 14.59 10.72" style="fill: #727272"/>
      <path d="M2.36,15V13.73L5.73,9.2h-3V8h4.7v1.1l-3.52,4.7H7.57V15Z" style="fill: #8959ab"/>
      <path d="M8,7H6.69L6.17,5.41H3.78L3.28,7H2L4.33,0H5.61ZM5.78,4.24,5,1.65,4.15,4.24Z" style="fill: #4a7db1"/>
    </g>
  </g>
</svg></svg>