<?xml version="1.0" encoding="utf-8"?><svg width="192.24" height="64">
<!--This file was automatically generated by BCGSoft ribbon/toolbar designer-->
<svg xmlns="http://www.w3.org/2000/svg" width="32" height="32" viewBox="0 0 32 32" x="0" y="0">
  <title>Print</title>
  <g id="BCG-largeIcons">
    <g id="Print">
      <path d="M28,11H25v6H7V11H4a2.15,2.15,0,0,0-2,2v9a2.15,2.15,0,0,0,2,2H28a2.15,2.15,0,0,0,2-2V13A2.15,2.15,0,0,0,28,11Zm0,11H26V20h2Z" style="fill: gray"/>
      <g>
        <g>
          <polygon points="9.47 28.53 9.47 20.47 22.5 20.47 22.53 28.53 9.47 28.53" style="fill: #fff"/>
          <path d="M22,20.93l0,7.14H9.93V20.93H22M23,20H9v9H23l0-9Z" style="fill: gray"/>
        </g>
        <rect x="12" y="23" width="8" height="1" style="fill: #4d82b8"/>
        <rect x="12" y="25" width="8" height="1" style="fill: #4d82b8"/>
      </g>
      <g>
        <rect x="8" y="11" width="16" height="5" style="fill: #4d82b8"/>
        <g>
          <rect x="9.5" y="4.5" width="13" height="8" style="fill: #fff"/>
          <path d="M22,5v7H10V5H22m1-1H9v9H23V4Z" style="fill: gray"/>
        </g>
      </g>
    </g>
  </g>
</svg><svg xmlns="http://www.w3.org/2000/svg" width="32.04" height="32" viewBox="0 0 32.04 32" x="32" y="0">
  <title>Zoom+</title>
  <g id="BCG-largeIcons">
    <g>
      <polygon points="19 12 15 12 15 8 12 8 12 12 8 12 8 15 12 15 12 19 15 19 15 15 19 15 19 12" style="fill: #4d82b8"/>
      <path d="M30.35,27.23,23,19.92a11.59,11.59,0,1,0-2,2.25l7.19,7.18a1,1,0,0,0,1.42,0l.7-.7A1,1,0,0,0,30.35,27.23ZM13.5,22.5a9,9,0,1,1,9-9A9,9,0,0,1,13.5,22.5Z" style="fill: gray"/>
    </g>
  </g>
</svg><svg xmlns="http://www.w3.org/2000/svg" width="32" height="32" viewBox="0 0 32 32" x="64.04" y="0">
  <title>Zoom-</title>
  <g id="BCG-largeIcons">
    <g>
      <rect x="8" y="12" width="11" height="3" style="fill: #4d82b8"/>
      <path d="M30.35,27.23,23,19.92a11.59,11.59,0,1,0-2,2.25l7.19,7.18a1,1,0,0,0,1.42,0l.7-.7A1,1,0,0,0,30.35,27.23ZM13.5,22.5a9,9,0,1,1,9-9A9,9,0,0,1,13.5,22.5Z" style="fill: gray"/>
    </g>
  </g>
</svg><svg xmlns="http://www.w3.org/2000/svg" width="31.96" height="32" viewBox="0 0 31.96 32" x="96.04" y="0">
  <title>Exit</title>
  <g id="BCG-largeIcons">
    <g id="Exit">
      <rect x="1.97" y="2" width="28" height="28" rx="3.5" ry="3.5" style="fill: #d86344"/>
      <polygon points="24.29 10 19.56 10 16.01 13.9 12.47 10 7.74 10 13.65 16.5 7.74 23 12.47 23 16.01 19.1 19.56 23 24.29 23 18.38 16.5 24.29 10" style="fill: #fff"/>
    </g>
  </g>
</svg><svg xmlns="http://www.w3.org/2000/svg" width="32" height="32" viewBox="0 0 32 32" x="128" y="0">
  <title>ImageDoc</title>
  <g id="BCG-largeIcons">
    <g id="ImageDoc">
      <g>
        <rect x="5.5" y="2.5" width="22" height="27" style="fill: #fff"/>
        <path d="M27,3V29H6V3H27m1-1H5V30H28V2Z" style="fill: gray"/>
      </g>
      <g>
        <rect x="11.5" y="5.5" width="13" height="12" style="fill: #fff"/>
        <path d="M24,6V17H12V6H24m1-1H11V18H25V5Z" style="fill: #9e9e9e"/>
      </g>
      <path d="M25,27H8V26H25Zm0-4H8v1H25Zm0-3H8v1H25ZM10,17H8v1h2Zm0-3H8v1h2Zm0-3H8v1h2Zm0-3H8V9h2Zm0-3H8V6h2Z" style="fill: #b3b3b3"/>
      <circle cx="20.5" cy="8.5" r="1.5" style="fill: #edc87e"/>
      <path d="M16.5,11c1.58,0,3.29,4.09,4.5,5H13S13.26,11,16.5,11Zm3.64,1.94a4.24,4.24,0,0,0,1.69,2.48.69.69,0,0,0,1.06-.68c-.17-1.09-.61-2.54-1.73-2.82A.84.84,0,0,0,20.14,12.94Z" style="fill: #4d82b8"/>
    </g>
  </g>
</svg><svg xmlns="http://www.w3.org/2000/svg" width="32" height="32" viewBox="0 0 32 32" x="160" y="0">
  <title>ImageBook</title>
  <g id="BCG-largeIcons">
    <g id="ImageBook">
      <path d="M31,29H0V5H31Z" style="fill: #4d82b8"/>
      <g>
        <path d="M15.5,27.47c-.28,0-.55,0-.83,0L2.5,26.54v-23L14,4.39c.5,0,1,.06,1.51.06s1,0,1.51-.06L28.5,3.54v23l-12.17.9C16.05,27.46,15.78,27.47,15.5,27.47Z" style="fill: #fff"/>
        <path d="M28,4.08v22l-11.7.87c-.27,0-.53,0-.8,0s-.53,0-.8,0L3,26.07v-22l11,.81c.51,0,1,.06,1.55.06s1,0,1.55-.06l11-.81M29,3,17,3.89c-.49,0-1,.06-1.48.06s-1,0-1.48-.06L2,3V27l12.63.94q.43,0,.87,0t.87,0L29,27V3Z" style="fill: #b3b3b3"/>
      </g>
      <path d="M23,7a2,2,0,0,0,3,1.72V6H23.28A2,2,0,0,0,23,7Z" style="fill: #edc87e"/>
      <path d="M25,7v6H19V7h6m1-1H18v8h8V6ZM13,8H5V7h8Zm0,2H5v1h8Zm0,3H5v1h8Zm0,3H5v1h8Zm0,3H5v1h8Zm0,3H5v1h8Zm13-6H18v1h8Zm0,3H18v1h8Zm0,3H18v1h8ZM16,4H15V27h1Z" style="fill: #b3b3b3"/>
      <path d="M25,12.83C23.94,11.29,22.68,9,21.5,9A2.86,2.86,0,0,0,19,10.53V13h6Z" style="fill: #4d82b8"/>
    </g>
  </g>
</svg></svg>