<?xml version="1.0" encoding="utf-8"?><svg width="128" height="32">
<!--This file was automatically generated by BCGSoft ribbon/toolbar designer-->
<svg xmlns="http://www.w3.org/2000/svg" width="16" height="16" viewBox="0 0 16 16" x="0" y="0">
  <title>ImageDoc_small</title>
  <g id="BCG-largeIcons">
    <g id="ImageDoc">
      <path d="M15,1V14H1V1H15m1-1H0V15H16V0Z" style="fill: gray"/>
      <path d="M1,14V1H15V14Z" style="fill: #fff"/>
      <path d="M13,3v8H5V3h8m1-1H4V12H14V2ZM3,8H2V9H3Zm0,3H2v1H3ZM3,5H2V6H3ZM3,2H2V3H3Z" style="fill: #9e9e9e"/>
      <circle cx="10.5" cy="5.5" r="1.5" style="fill: #edc87e"/>
      <path d="M7.75,7C8.54,7,9.39,9.29,10,9.8H6S6.13,7,7.75,7ZM12,9.8H9c.45-.27,1.1-1.49,1.69-1.49C11.9,8.31,12,9.8,12,9.8Z" style="fill: #4d82b8"/>
    </g>
  </g>
</svg><svg xmlns="http://www.w3.org/2000/svg" width="16" height="16" viewBox="0 0 16 16" x="16" y="0">
  <title>ImageBook_small</title>
  <g id="BCG-largeIcons">
    <g id="AddressBook">
      <g>
        <rect x="0.5" y="1.5" width="14" height="12" style="fill: #fff"/>
        <path d="M14,2V13H1V2H14m1-1H0V14H15V1Z" style="fill: #4a7db1"/>
      </g>
      <rect y="1" width="15" height="1" style="fill: #727272"/>
      <path d="M6,5H2V4H6ZM6,6H2V7H6ZM6,8H2V9H6Zm0,2H2v1H6Zm7,0H9v1h4ZM9,4V9h4V4Zm3,4H10V5h2ZM7,2V13H8V2Z" style="fill: #b3b3b3"/>
      <path d="M8,2H7V1H8ZM8,13H7v1H8Z" style="fill: #464646"/>
    </g>
  </g>
</svg><svg xmlns="http://www.w3.org/2000/svg" width="16" height="16" viewBox="0 0 16 16" x="32" y="0">
  <title>FileDown</title>
  <g id="BCG-largeIcons">
    <g id="FileDown">
      <path d="M10.07,15H2V1H8V5h4V8H11v3.88l-2-2V14ZM9,4h2.5L9,1.5Z" style="fill: #fff"/>
      <polygon points="13 9 12 9 12 14.3 10 12.29 10 13.53 12.5 16 15 13.53 15 12.29 13 14.35 13 9" style="fill: #4a7db1"/>
      <path d="M10.07,15H2V1H8V5h4V8h1V4L9,0H1V16H11.08ZM9,1.5,11.5,4H9Z" style="fill: #727272"/>
    </g>
  </g>
</svg><svg xmlns="http://www.w3.org/2000/svg" width="16" height="16" viewBox="0 0 16 16" x="48" y="0">
  <title>FileUp</title>
  <g id="BCG-largeIcons">
    <g id="FileUp">
      <path d="M12,5V8.09l-3,3V15H2V1H8V5ZM9,1.5V4h2.5ZM9.17,15H11V13.11Z" style="fill: #fff"/>
      <path d="M2,1H1V0H9l4,4V8.09l-.5-.5-.5.5V3.87L9.24,1H2ZM8,5V1H9.24L12,3.87V5H8ZM9,4h2.5L9,1.5Zm2,11H2V1H1V16H11Z" style="fill: #727272"/>
      <polygon points="12 16 13 16 13 10.7 15 12.71 15 11.47 12.5 9 10 11.47 10 12.71 12 10.65 12 16" style="fill: #4a7db1"/>
    </g>
  </g>
</svg><svg xmlns="http://www.w3.org/2000/svg" width="16" height="16" viewBox="0 0 16 16" x="64" y="0">
  <title>Print_1</title>
  <g id="BCG-largeIcons">
    <g id="Print">
      <path d="M15,4H13V6H3V4H1A1,1,0,0,0,0,5v6a1,1,0,0,0,1,1H15a1,1,0,0,0,1-1V5A1,1,0,0,0,15,4Z" style="fill: #727272"/>
      <rect x="13" y="10" width="1" height="1" style="fill: #727272"/>
      <g>
        <rect x="4.5" y="9.5" width="7" height="5" style="fill: #fff"/>
        <path d="M11,10v4H5V10h6m1-1H4v6h8V9Z" style="fill: #727272"/>
      </g>
      <g>
        <rect x="4.5" y="0.5" width="7" height="4" style="fill: #fff"/>
        <path d="M11,1V4H5V1h6m1-1H4V5h8V0Z" style="fill: #727272"/>
      </g>
    </g>
  </g>
</svg><svg xmlns="http://www.w3.org/2000/svg" width="16" height="16" viewBox="0 0 16 16" x="80" y="0">
  <title>Exit_1</title>
  <g id="BCG-largeIcons">
    <g id="Exit">
      <rect width="16" height="16" rx="2" ry="2" style="fill: #d65532"/>
      <polygon points="12.46 5 9.91 5 8 7.1 6.09 5 3.54 5 6.73 8.5 3.54 12 6.09 12 8 9.9 9.91 12 12.46 12 9.27 8.5 12.46 5" style="fill: #fff"/>
    </g>
  </g>
</svg><svg xmlns="http://www.w3.org/2000/svg" width="16" height="16" viewBox="0 0 16 16" x="96" y="0">
  <title>Zoom+_small</title>
  <g id="BCG-largeIcons">
    <g id="Zoom_2" data-name="Zoom+">
      <polygon points="9 5 7 5 7 3 5 3 5 5 3 5 3 7 5 7 5 9 7 9 7 7 9 7 9 5" style="fill: #4d82b8"/>
      <path d="M14.85,13.21,11,9.38A6,6,0,0,0,12,6,6,6,0,1,0,10,10.56l3.77,3.76a.51.51,0,0,0,.74,0l.37-.37A.53.53,0,0,0,14.85,13.21ZM6,10.73A4.71,4.71,0,1,1,10.73,6,4.71,4.71,0,0,1,6,10.73Z" style="fill: gray"/>
    </g>
  </g>
</svg><svg xmlns="http://www.w3.org/2000/svg" width="16" height="16" viewBox="0 0 16 16" x="112" y="0">
  <title>Zoom-_small</title>
  <g id="BCG-largeIcons">
    <g id="Zoom--2" data-name="Zoom-">
      <rect x="3" y="5" width="6" height="2" style="fill: #4d82b8"/>
      <path d="M14.85,13.21,11,9.38A6,6,0,0,0,12,6,6,6,0,1,0,10,10.56l3.77,3.76a.51.51,0,0,0,.74,0l.37-.37A.53.53,0,0,0,14.85,13.21ZM6,10.73A4.71,4.71,0,1,1,10.73,6,4.71,4.71,0,0,1,6,10.73Z" style="fill: gray"/>
    </g>
  </g>
</svg></svg>