<?xml version="1.0" encoding="utf-8"?><svg width="48" height="64">
<!--This file was automatically generated by BCGSoft ribbon/toolbar designer-->
<svg xmlns="http://www.w3.org/2000/svg" width="16" height="16" viewBox="0 0 16 16" x="0" y="0">
  <title>ArrowRotateUp</title>
  <g id="BCG-largeIcons">
    <polygon id="ArrowRotateUp" points="7 14 9 14 9 5 13 9 13 6 8 1 3 6 3 9 7 5 7 14" style="fill: #4a7db1"/>
  </g>
</svg><svg xmlns="http://www.w3.org/2000/svg" width="16" height="16" viewBox="0 0 16 16" x="16" y="0">
  <title>ArrowRotateCounterclockwise</title>
  <g id="BCG-largeIcons">
    <path id="ArrowRotateCounterclockwise" d="M13.77,6.38C13.23,5.81,12.5,5,10,5H4.5l3-3H4L0,6l4,4H7.5l-3-3H10a2.64,2.64,0,0,1,2.54,1.37,3,3,0,0,1,0,3.14C12,12.28,11,13,9,13v2c1,0,6,0,6-5A5.3,5.3,0,0,0,13.77,6.38Z" style="fill: #4a7db1"/>
  </g>
</svg><svg xmlns="http://www.w3.org/2000/svg" width="16" height="16" viewBox="0 0 16 16" x="32" y="0">
  <title>ArrowRotateLeft</title>
  <g id="BCG-largeIcons">
    <polygon id="ArrowRotateLeft" points="14 9 14 7 5 7 9 3 6 3 1 8 6 13 9 13 5 9 14 9" style="fill: #4a7db1"/>
  </g>
</svg><svg xmlns="http://www.w3.org/2000/svg" width="16" height="16" viewBox="0 0 16 16" x="0" y="16">
  <title>ArrowRotateNarrow</title>
  <g id="BCG-largeIcons">
    <polygon id="ArrowRotateWiden" points="8 2 0 7 3.5 7 6 14 8 14 10 14 12.5 7 16 7 8 2" style="fill: #4a7db1"/>
  </g>
</svg><svg xmlns="http://www.w3.org/2000/svg" width="16" height="16" viewBox="0 0 16 16" x="16" y="16">
  <title>ArrowRotateDown</title>
  <g id="BCG-largeIcons">
    <polygon id="ArrowRotateDown" points="9 1 7 1 7 10 3 6 3 9 8 14 13 9 13 6 9 10 9 1" style="fill: #4a7db1"/>
  </g>
</svg><svg xmlns="http://www.w3.org/2000/svg" width="16" height="16" viewBox="0 0 16 16" x="32" y="16">
  <title>ArrowRotateWiden</title>
  <g id="BCG-largeIcons">
    <polygon id="ArrowRotateNarrow" points="8 14 16 9 12.5 9 10 2 8 2 6 2 3.5 9 0 9 8 14" style="fill: #4a7db1"/>
  </g>
</svg><svg xmlns="http://www.w3.org/2000/svg" width="16" height="16" viewBox="0 0 16 16" x="0" y="32">
  <title>ArrowRotateRight</title>
  <g id="BCG-largeIcons">
    <polygon id="ArrowRotateRight" points="2 7 2 9 11 9 7 13 10 13 15 8 10 3 7 3 11 7 2 7" style="fill: #4a7db1"/>
  </g>
</svg><svg xmlns="http://www.w3.org/2000/svg" width="16" height="16" viewBox="0 0 16 16" x="16" y="32">
  <title>ArrowRotateClockwise</title>
  <g id="BCG-largeIcons">
    <path id="ArrowRotateClockwise" d="M2.23,6.38C2.77,5.81,3.5,5,6,5h5.5l-3-3H12l4,4-4,4H8.5l3-3H6A2.64,2.64,0,0,0,3.46,8.37a3,3,0,0,0,0,3.14C4,12.28,5,13,7,13v2c-1,0-6,0-6-5A5.3,5.3,0,0,1,2.23,6.38Z" style="fill: #4a7db1"/>
  </g>
</svg><svg xmlns="http://www.w3.org/2000/svg" width="16" height="16" viewBox="0 0 16 16" x="32" y="32">
  <title>ArrowRotateReset</title>
  <g id="BCG-largeIcons">
    <path id="ArrowRotateReset" d="M16,9a7.48,7.48,0,0,0-6-5A7.65,7.65,0,0,0,2,9.5V5L0,7v6H6l2-2H4A8.86,8.86,0,0,1,5.92,7.92,4,4,0,0,1,9,6.46a3.78,3.78,0,0,1,2.1.53A4.32,4.32,0,0,1,13,9Z" style="fill: #4a7db1"/>
  </g>
</svg></svg>