<?xml version="1.0" encoding="utf-8"?><svg width="64" height="32">
<!--This file was automatically generated by BCGSoft ribbon/toolbar designer-->
<svg xmlns="http://www.w3.org/2000/svg" width="16" height="16" viewBox="0 0 16 16" x="0" y="0">
  <title>ArrowLeft</title>
  <g id="BCG-largeIcons">
    <g id="ArrowLeft">
      <circle cx="8" cy="8" r="8" style="fill: #0084c5"/>
      <path d="M6,12H9.5L6.83,9H14V7H6.83L9.59,4H6L2,8Z" style="fill: #fff"/>
    </g>
  </g>
</svg><svg xmlns="http://www.w3.org/2000/svg" width="16" height="16" viewBox="0 0 16 16" x="16" y="0">
  <title>ArrowRight</title>
  <g id="BCG-largeIcons">
    <g id="ArrowRight">
      <circle cx="8" cy="8" r="8" style="fill: #0084c5"/>
      <path d="M14,8,10,4H6.41L9.17,7H2V9H9.17L6.5,12H10Z" style="fill: #fff"/>
    </g>
  </g>
</svg><svg xmlns="http://www.w3.org/2000/svg" xmlns:xlink="http://www.w3.org/1999/xlink" version="1.1" baseProfile="full" width="16" height="16" viewBox="0 0 16.00 16.00" enable-background="new 0 0 16.00 16.00" xml:space="preserve" x="32" y="0">
	<g>
		<rect x="12" y="1" fill="#D65532" width="2" height="6"/>
		<path stroke-linejoin="miter" stroke="#A5A5A5" fill="#FFFFFF" d="M2,14.5 l0,-7 l6,-6 l6,6 l0,7 z"/>
    <polyline points="0.5,8.5 8,1 15.5,8.5" stroke-linejoin="miter" stroke="#727272" stroke-width="1.5" fill="none"/>
		<rect x="6" y="9" fill="#EAC282" fill-opacity="1" fill-rule="evenodd" width="4" height="5"/>
	</g>
</svg><svg xmlns="http://www.w3.org/2000/svg" width="16" height="16" viewBox="0 0 16 16" x="48" y="0">
  <title>Clear</title>
  <g id="BCG-largeIcons">
    <path id="Clear" d="M2,2.12,13.91,14M14,2,2,14" style="fill: #fff;fill-opacity: 0.5019609928131104;stroke: #526f99;stroke-linecap: round;stroke-linejoin: round;stroke-width: 2.043451549697961px"/>
  </g>
</svg></svg>